<svg xmlns="http://www.w3.org/2000/svg">
  <defs>
    <symbol id="twitter" viewBox="0 0 24 24">
      <path
        class="cls-1"
        d="M22,6.45a8,8,0,0,1-1.85,1.78c0,.18,0,.36,0,.55A12.2,12.2,0,0,1,7.78,21a12.24,12.24,0,0,1-5.45-1.26.25.25,0,0,1-.15-.23V19.4a.26.26,0,0,1,.26-.26A8.86,8.86,0,0,0,7.56,17.3a4.37,4.37,0,0,1-3.89-2.56.26.26,0,0,1,.26-.36,4,4,0,0,0,1.52-.14A4.36,4.36,0,0,1,2,10.43a.26.26,0,0,1,.36-.26,4,4,0,0,0,1.58.34A4.28,4.28,0,0,1,2.23,5.57a.54.54,0,0,1,.91-.18,12.36,12.36,0,0,0,8.41,3.88,4,4,0,0,1-.12-1,4.36,4.36,0,0,1,7.51-2.94,8.69,8.69,0,0,0,2.39-.83.17.17,0,0,1,.18,0,.17.17,0,0,1,0,.18,4.37,4.37,0,0,1-1.76,2,8.58,8.58,0,0,0,2-.48.16.16,0,0,1,.18,0A.17.17,0,0,1,22,6.45Z"
      />
    </symbol>
    <symbol id="instagram" viewBox="0 0 24 24">
      <path
        d="M16,3H8A5,5,0,0,0,3,8v8a5,5,0,0,0,5,5h8a5,5,0,0,0,5-5V8A5,5,0,0,0,16,3Zm3.25,13A3.26,3.26,0,0,1,16,19.25H8A3.26,3.26,0,0,1,4.75,16V8A3.26,3.26,0,0,1,8,4.75h8A3.26,3.26,0,0,1,19.25,8Zm-1.5-8.75a1,1,0,1,1-1-1A1,1,0,0,1,17.75,7.25ZM12,7.5A4.5,4.5,0,1,0,16.5,12,4.49,4.49,0,0,0,12,7.5Zm0,7.25A2.75,2.75,0,1,1,14.75,12,2.75,2.75,0,0,1,12,14.75Z"
      />
    </symbol>
    <symbol id="info" viewBox="0 0 24 24">
      <path
        d="M12,2A10,10,0,1,0,22,12,10,10,0,0,0,12,2Zm0,18a8,8,0,1,1,8-8A8,8,0,0,1,12,20Zm1-7.5a.5.5,0,0,0-.5-.5h-1a.5.5,0,0,0-.5.5v3a.5.5,0,0,0,.5.5h1a.5.5,0,0,0,.5-.5Zm0-4a.5.5,0,0,0-.5-.5h-1a.5.5,0,0,0-.5.5v1a.5.5,0,0,0,.5.5h1a.5.5,0,0,0,.5-.5Z"
      />
    </symbol>
    <symbol id="right" viewBox="0 2 24 20">
      <path
        d="M15.78,11.28a.75.75,0,0,1,.22.53v.38a.77.77,0,0,1-.22.53l-5.14,5.13a.5.5,0,0,1-.71,0l-.71-.71a.49.49,0,0,1,0-.7L13.67,12,9.22,7.56a.5.5,0,0,1,0-.71l.71-.7a.5.5,0,0,1,.71,0Z"
      />
    </symbol>
    <symbol id="left" viewBox="0 2 24 20">
      <path
        d="M8.22,12.72A.75.75,0,0,1,8,12.19v-.38a.77.77,0,0,1,.22-.53l5.14-5.13a.5.5,0,0,1,.71,0l.71.71a.49.49,0,0,1,0,.7L10.33,12l4.45,4.44a.5.5,0,0,1,0,.71l-.71.7a.5.5,0,0,1-.71,0Z"
      />
    </symbol>
    <symbol id="close" viewBox="0 0 24 24">
      <path
        d="M17.85,16.44a.5.5,0,0,1,0,.71l-.7.7a.5.5,0,0,1-.71,0L12,13.41,7.56,17.85a.5.5,0,0,1-.71,0l-.7-.7a.5.5,0,0,1,0-.71L10.59,12,6.15,7.56a.5.5,0,0,1,0-.71l.7-.7a.5.5,0,0,1,.71,0L12,10.59l4.44-4.44a.5.5,0,0,1,.71,0l.7.7a.5.5,0,0,1,0,.71L13.41,12Z"
      />
    </symbol>
    <symbol
      id="ham"
      viewBox="0 0 24 24"
      fill="none"
      stroke="currentColor"
      stroke-width="2"
      stroke-linecap="round"
      stroke-linejoin="round"
      class="feather feather-menu"
    >
      <title>hamburger</title>
      <line x1="3" y1="12" x2="21" y2="12"></line>
      <line x1="3" y1="6" x2="21" y2="6"></line>
      <line x1="3" y1="18" x2="21" y2="18"></line>
    </symbol>

    <symbol
      id="hamburger"
      width="16"
      height="10"
      viewBox="0 0 16 10"
      fill="currentColor"
    >
      <title>Open mobile navigation</title>
      <g fill="var(--knockoutColor)" fill-rule="evenodd">
        <rect y="8" width="16" height="2" rx="1"></rect>
        <rect y="4" width="16" height="2" rx="1"></rect>
        <rect width="16" height="2" rx="1"></rect>
      </g>
    </symbol>
    <symbol width="12" height="12" viewBox="0 0 12 12" fill="none" id="arrow">
      <path
        d="M6 1.75735L10.2426 6L6 10.2426"
        stroke-width="2"
        stroke-linecap="round"
        stroke-linejoin="round"
      />
    </symbol>
    <symbol
      width="40"
      height="14"
      viewBox="0 0 40 14"
      fill="none"
      id="long-arrow2"
    >
      <path
        d="M0 7.99062V5.98945C0 5.72408 0.10539 5.46957 0.292984 5.28193C0.480578 5.09428 0.73501 4.98887 1.00031 4.98887H32.0099V0.98653C32.0126 0.790689 32.0728 0.599962 32.1829 0.437994C32.293 0.276025 32.4482 0.14994 32.6292 0.0753666C32.8103 0.000792973 33.0092 -0.0189884 33.2014 0.0184753C33.3936 0.055939 33.5706 0.148999 33.7104 0.28612L39.7122 6.28962C39.8968 6.48004 40 6.73483 40 7.00004C40 7.26525 39.8968 7.52004 39.7122 7.71045L33.7104 13.714C33.5694 13.8522 33.3906 13.9457 33.1965 13.9825C33.0025 14.0193 32.8019 13.9978 32.62 13.9208C32.4382 13.8437 32.2832 13.7146 32.1746 13.5496C32.066 13.3845 32.0087 13.1911 32.0099 12.9935V8.9912H1.00031C0.73501 8.9912 0.480578 8.88578 0.292984 8.69814C0.10539 8.51049 0 8.25599 0 7.99062Z"
        fill="currentColor"
      />
    </symbol>
    <symbol
      width="23"
      height="9"
      viewBox="0 0 23 9"
      fill="none"
      id="long-arrow"
    >
      <path
        d="M0 5.13683V3.85036C0 3.67976 0.060599 3.51616 0.168466 3.39553C0.276332 3.2749 0.422631 3.20713 0.575177 3.20713H18.4057V0.634198C18.4073 0.5083 18.4418 0.38569 18.5051 0.281567C18.5684 0.177445 18.6577 0.0963901 18.7618 0.0484499C18.8659 0.000509768 18.9803 -0.0122069 19.0908 0.011877C19.2013 0.0359608 19.3031 0.0957849 19.3835 0.183934L22.8345 4.04333C22.9407 4.16574 23 4.32953 23 4.50003C23 4.67052 22.9407 4.83431 22.8345 4.95672L19.3835 8.81611C19.3024 8.90501 19.1996 8.96508 19.088 8.98874C18.9764 9.0124 18.8611 8.99859 18.7565 8.94907C18.652 8.89954 18.5628 8.81651 18.5004 8.71043C18.438 8.60435 18.405 8.47998 18.4057 8.35299V5.78006H0.575177C0.422631 5.78006 0.276332 5.71229 0.168466 5.59166C0.060599 5.47103 0 5.30742 0 5.13683Z"
        fill="currentColor"
      />
    </symbol>
    <symbol id="arrow2" width="9" height="9" fill="none">
      <g id="arrow-line">
        <path
          d="M2 1H8V7"
          class="arrow-line"
          stroke="black"
          stroke-width="2"
          stroke-linecap="round"
          stroke-linejoin="round"
        />
      </g>
      <path
        d="M1 8L8 1"
        stroke="black"
        class="arrow-angle"
        stroke-width="2"
        stroke-linecap="round"
        stroke-linejoin="round"
      />
    </symbol>

    <symbol id="underline">
      <path
        fill="#F84F77"
        fill-rule="evenodd"
        d="M368 6l-4-1h20l-6-2h-8 9l-26-1-10-1-42-1h-65l-47 1H92L60 2 20 3H9L1 5c-2 0-1 1 1 1h8L8 7h20l33 1h48l64-1h160l11-1h24"
      ></path>
    </symbol>
    <symbol
      id="feature-fast"
      width="48"
      height="48"
      viewBox="0 0 48 48"
      fill="none"
    >
      <path
        d="M45.819 29.1C47.2419 31.1192 48.0039 33.5298 48 36C48 42.627 42.627 48 36 48C30.67 48 26.15 44.524 24.586 39.715C25.6874 39.9028 26.8027 39.9981 27.92 40H28C35.693 40.015 42.379 35.667 45.724 29.284L45.819 29.1Z"
        fill="#FD2D55"
      />
      <path
        fill-rule="evenodd"
        clip-rule="evenodd"
        d="M28.078 0.999978H28.08H27.998C17.528 0.978978 9.02104 9.46799 9.00004 19.962C8.97904 30.456 17.451 38.979 27.92 39H28.002C38.472 39.021 46.979 30.532 47 20.038C47.021 9.54399 38.549 1.02098 28.078 0.999978Z"
        stroke="#24124D"
        stroke-width="2"
      />
      <path
        d="M12 48C14.2091 48 16 46.2091 16 44C16 41.7909 14.2091 40 12 40C9.79086 40 8 41.7909 8 44C8 46.2091 9.79086 48 12 48Z"
        fill="#5333ED"
      />
      <path
        d="M4 7.99999C6.20914 7.99999 8 6.20913 8 3.99999C8 1.79086 6.20914 0 4 0C1.79086 0 0 1.79086 0 3.99999C0 6.20913 1.79086 7.99999 4 7.99999Z"
        fill="#5333ED"
      />
      <path
        d="M6 36C7.10457 36 8 35.1046 8 34C8 32.8955 7.10457 32 6 32C4.89543 32 4 32.8955 4 34C4 35.1046 4.89543 36 6 36Z"
        fill="#FD2D55"
      />
      <path
        d="M30.0541 14.8209L35.5 20.1936L30.0541 25.5663"
        stroke="#5333ED"
        stroke-width="3"
        stroke-linecap="round"
        stroke-linejoin="round"
      />
      <g style="mix-blend-mode: multiply;">
        <path
          d="M25.027 14.8209L30.473 20.1936L25.027 25.5663"
          stroke="#04D5FE"
          stroke-width="3"
          stroke-linecap="round"
          stroke-linejoin="round"
        />
      </g>
      <g style="mix-blend-mode: multiply;">
        <path
          d="M20 14.8209L25.446 20.1936L20 25.5663"
          stroke="#04D5FE"
          stroke-width="3"
          stroke-linecap="round"
          stroke-linejoin="round"
        />
      </g>
    </symbol>

    <symbol
      id="feature-backup"
      width="48"
      height="48"
      viewBox="0 0 48 48"
      fill="none"
    >
      <path
        d="M28 0C34.627 0 40 5.37299 40 12V11.986C36.5635 9.40093 32.3803 8.00207 28.08 7.99999H28C23.6724 7.98475 19.4584 9.38449 16 11.986C16.008 5.36499 21.377 0 28 0Z"
        fill="#76FBDD"
      />
      <path
        fill-rule="evenodd"
        clip-rule="evenodd"
        d="M28.0781 9.00001H28.0801H27.9981C17.528 8.97901 9.02104 17.468 9.00004 27.962C8.97904 38.456 17.451 46.9791 27.9201 47.0001H28.0021C38.4721 47.0211 46.9791 38.532 47.0001 28.038C47.0211 17.544 38.5491 9.02101 28.0781 9.00001Z"
        stroke="#24124D"
        stroke-width="2"
      />
      <path
        d="M4 48C6.20914 48 8 46.2091 8 44C8 41.7909 6.20914 40 4 40C1.79086 40 0 41.7909 0 44C0 46.2091 1.79086 48 4 48Z"
        fill="#76FBDD"
      />
      <path
        d="M8 12C10.2091 12 12 10.2091 12 7.99999C12 5.79085 10.2091 3.99999 8 3.99999C5.79086 3.99999 4 5.79085 4 7.99999C4 10.2091 5.79086 12 8 12Z"
        fill="#04D5FE"
      />
      <path
        d="M46 3.99999C47.1046 3.99999 48 3.10456 48 2C48 0.895429 47.1046 0 46 0C44.8954 0 44 0.895429 44 2C44 3.10456 44.8954 3.99999 46 3.99999Z"
        fill="#FD2D55"
      />
      <path
        d="M21.9982 33.6682C20.6214 32.0172 19.9117 29.9109 20.0088 27.7633C20.1058 25.6156 21.0025 23.582 22.5227 22.0618C24.0428 20.5417 26.0765 19.645 28.2241 19.5479C30.3717 19.4509 32.478 20.1605 34.129 21.5374"
        stroke="#5333ED"
        stroke-width="3"
        stroke-linecap="round"
        stroke-linejoin="round"
      />
      <g style="mix-blend-mode: multiply;">
        <path
          d="M28.0637 19C30.2408 19.1494 32.2799 20.1196 33.7692 21.7146C35.2585 23.3096 36.0868 25.4105 36.0868 27.5927C36.0868 29.7749 35.2585 31.8757 33.7692 33.4707C32.2799 35.0657 30.2408 36.036 28.0637 36.1854"
          stroke="#04D5FE"
          stroke-width="3"
          stroke-linecap="round"
          stroke-linejoin="round"
        />
      </g>
      <path
        d="M28.0738 29.6549C29.2015 29.6549 30.1158 28.7407 30.1158 27.6129C30.1158 26.4851 29.2015 25.5708 28.0738 25.5708C26.946 25.5708 26.0317 26.4851 26.0317 27.6129C26.0317 28.7407 26.946 29.6549 28.0738 29.6549Z"
        fill="#5332ED"
      />
      <path
        d="M23.818 35.5687H20.7954L23.818 32.5562V35.5687Z"
        stroke="#5333ED"
        stroke-width="2"
        stroke-linecap="round"
        stroke-linejoin="round"
      />
    </symbol>
    <symbol
      id="feature-migration"
      width="48"
      height="48"
      viewBox="0 0 48 48"
      fill="none"
    >
      <path
        d="M40 24C41.4323 24.0004 42.8383 24.3854 44.0711 25.1146C45.3039 25.8439 46.3183 26.8908 47.0083 28.146C47.6984 29.4012 48.0387 30.8186 47.9939 32.2502C47.9492 33.6819 47.5208 35.0753 46.7536 36.2848C45.9865 37.4944 44.9086 38.4758 43.6326 39.1266C42.3567 39.7774 40.9294 40.0737 39.4998 39.9845C38.0702 39.8953 36.6908 39.424 35.5056 38.6196C34.3204 37.8153 33.3729 36.7076 32.762 35.412C36.2748 32.5025 38.6872 28.4793 39.599 24.01L39.751 24.004L40 24Z"
        fill="#76FBDD"
      />
      <path
        d="M8.77401 36.566C12.0614 38.8015 15.9445 39.9979 19.92 40H20C21.366 40.003 22.7 39.868 23.99 39.609C24.0489 40.8167 23.8333 42.022 23.3594 43.1344C22.8855 44.2467 22.1656 45.2372 21.2538 46.0313C20.3421 46.8255 19.2621 47.4026 18.0953 47.7194C16.9284 48.0361 15.7049 48.0842 14.5167 47.8601C13.3285 47.636 12.2066 47.1455 11.2353 46.4254C10.264 45.7054 9.46851 44.7745 8.90868 43.7028C8.34885 42.6311 8.03923 41.4464 8.00309 40.2379C7.96695 39.0293 8.20522 37.8282 8.70001 36.725L8.77401 36.566Z"
        fill="#5333ED"
      />
      <path
        fill-rule="evenodd"
        clip-rule="evenodd"
        d="M20.078 0.999978H20.08H19.998C9.52803 0.978978 1.02104 9.46799 1.00004 19.962C0.979039 30.456 9.45103 38.979 19.92 39H20.002C30.472 39.021 38.979 30.532 39 20.038C39.021 9.54399 30.549 1.02098 20.078 0.999978Z"
        stroke="#24124D"
        stroke-width="2"
      />
      <path
        d="M46 3.99999C47.1046 3.99999 48 3.10456 48 2C48 0.895429 47.1046 0 46 0C44.8954 0 44 0.895429 44 2C44 3.10456 44.8954 3.99999 46 3.99999Z"
        fill="#5333ED"
      />
      <path
        d="M2 48C3.10457 48 4 47.1046 4 46C4 44.8954 3.10457 44 2 44C0.89543 44 0 44.8954 0 46C0 47.1046 0.89543 48 2 48Z"
        fill="#76FBDD"
      />
      <path
        d="M12 15H17.5332L22.1286 19.5954H28.67"
        stroke="#5333ED"
        stroke-width="3"
        stroke-linecap="round"
        stroke-linejoin="round"
      />
      <g style="mix-blend-mode: multiply;">
        <path
          d="M12 24.183H17.5332L22.1286 19.5954"
          stroke="#04D5FE"
          stroke-width="3"
          stroke-linecap="round"
          stroke-linejoin="round"
        />
      </g>
    </symbol>
    <symbol id="feature-fast-2" width="32" height="32" viewBox="0 0 32 32">
      <g style="isolation: isolate;">
        <g
          id="2aa124df-0d90-4d21-b848-834c907433db"
          data-name="figures and interactions"
        >
          <polygon
            points="20.73 6.47 11.27 6.47 6.53 14.67 11.27 22.87 20.73 22.87 25.47 14.67 20.73 6.47"
            style="
              fill: none;
              stroke: #04d5fe;
              stroke-linecap: round;
              stroke-linejoin: round;
              stroke-width: 3px;
              mix-blend-mode: multiply;
            "
          />
          <polyline
            points="14.87 12.81 18.14 16.08 24.64 9.58"
            style="
              fill: none;
              stroke: #5333ed;
              stroke-linecap: round;
              stroke-linejoin: round;
              stroke-width: 3px;
            "
          />
        </g>
      </g>
    </symbol>
    <symbol
      id="feature-secure"
      width="48"
      height="48"
      viewBox="0 0 48 48"
      fill="none"
    >
      <path
        d="M28 0C34.627 0 40 5.373 40 12V11.986C36.5635 9.40094 32.3803 8.00209 28.08 8H28C23.6724 7.98476 19.4584 9.38451 16 11.986C16.008 5.365 21.377 0 28 0Z"
        fill="#1EB8C1"
      />
      <path
        fill-rule="evenodd"
        clip-rule="evenodd"
        d="M28.078 8.99999H28.08H27.998C17.528 8.97899 9.02104 17.468 9.00004 27.962C8.97904 38.456 17.451 46.979 27.92 47H28.002C38.472 47.021 46.979 38.532 47 28.038C47.021 17.544 38.549 9.02099 28.078 8.99999Z"
        stroke="#24124D"
        stroke-width="2"
      />
      <path
        d="M4 48C6.20914 48 8 46.2091 8 44C8 41.7909 6.20914 40 4 40C1.79086 40 0 41.7909 0 44C0 46.2091 1.79086 48 4 48Z"
        fill="#FFB300"
      />
      <path
        d="M8 12C10.2091 12 12 10.2091 12 8C12 5.79086 10.2091 4 8 4C5.79086 4 4 5.79086 4 8C4 10.2091 5.79086 12 8 12Z"
        fill="#FD2D55"
      />
      <path
        d="M46 4C47.1046 4 48 3.10457 48 2C48 0.89543 47.1046 0 46 0C44.8954 0 44 0.89543 44 2C44 3.10457 44.8954 4 46 4Z"
        fill="#FD2D55"
      />
      <path
        d="M34 24.0174H21V35.5714H34V24.0174Z"
        stroke="#5333ED"
        stroke-width="3"
        stroke-linecap="round"
        stroke-linejoin="round"
      />
      <g style="mix-blend-mode: multiply;">
        <path
          d="M23.6533 23.9466V21.0325C23.6533 19.963 24.0587 18.9373 24.7802 18.1811C25.5017 17.4248 26.4803 17 27.5007 17C28.5211 17 29.4997 17.4248 30.2212 18.1811C30.9428 18.9373 31.3481 19.963 31.3481 21.0325V23.9781"
          stroke="#04D5FE"
          stroke-width="3"
          stroke-linecap="round"
          stroke-linejoin="round"
        />
      </g>
      <g style="mix-blend-mode: multiply;">
        <g style="mix-blend-mode: multiply;">
          <path
            d="M27.5014 28.2547C27.7986 28.2547 28.0892 28.3471 28.3363 28.5202C28.5835 28.6933 28.7761 28.9393 28.8899 29.2271C29.0036 29.5149 29.0334 29.8316 28.9754 30.1372C28.9174 30.4428 28.7743 30.7234 28.5641 30.9437C28.3539 31.164 28.0861 31.314 27.7946 31.3748C27.503 31.4356 27.2009 31.4044 26.9262 31.2852C26.6516 31.166 26.4169 30.9641 26.2518 30.705C26.0866 30.446 25.9985 30.1414 25.9985 29.8299C25.9985 29.4121 26.1568 29.0115 26.4387 28.7161C26.7205 28.4207 27.1028 28.2547 27.5014 28.2547ZM27.5014 25.8919C26.7583 25.8919 26.0318 26.1229 25.414 26.5556C24.7961 26.9883 24.3145 27.6033 24.0301 28.3229C23.7458 29.0425 23.6714 29.8343 23.8163 30.5982C23.9613 31.362 24.3192 32.0637 24.8446 32.6145C25.3701 33.1652 26.0395 33.5402 26.7684 33.6922C27.4972 33.8441 28.2527 33.7662 28.9392 33.4681C29.6257 33.17 30.2125 32.6653 30.6254 32.0177C31.0382 31.3701 31.2586 30.6088 31.2586 29.8299C31.2586 28.7855 30.8627 27.7839 30.1581 27.0453C29.4535 26.3068 28.4978 25.8919 27.5014 25.8919Z"
            fill="#2CD4D9"
          />
        </g>
      </g>
    </symbol>
    <symbol
      width="48"
      height="48"
      viewBox="0 0 48 48"
      fill="none"
      id="feature-dev"
    >
      <path
        d="M39.9997 24C41.4321 24.0004 42.8381 24.3853 44.0708 25.1146C45.3036 25.8439 46.318 26.8908 47.0081 28.146C47.6981 29.4011 48.0385 30.8186 47.9937 32.2502C47.9489 33.6819 47.5206 35.0752 46.7534 36.2848C45.9862 37.4944 44.9084 38.4758 43.6324 39.1266C42.3564 39.7774 40.9291 40.0737 39.4995 39.9845C38.07 39.8953 36.6906 39.4239 35.5053 38.6196C34.3201 37.8153 33.3726 36.7075 32.7617 35.412C36.2745 32.5024 38.687 28.4792 39.5987 24.01L39.7507 24.004L39.9997 24Z"
        fill="#1EB8C1"
      />
      <path
        d="M8.77352 36.566C12.0609 38.8015 15.9441 39.9979 19.9195 40H19.9995C21.3655 40.003 22.6995 39.868 23.9895 39.609C24.0484 40.8167 23.8328 42.022 23.3589 43.1344C22.885 44.2467 22.1651 45.2372 21.2533 46.0313C20.3416 46.8255 19.2617 47.4026 18.0948 47.7194C16.9279 48.0361 15.7044 48.0842 14.5162 47.8601C13.328 47.636 12.2061 47.1455 11.2348 46.4254C10.2635 45.7054 9.46802 44.7745 8.90819 43.7028C8.34836 42.6311 8.03874 41.4464 8.0026 40.2379C7.96646 39.0293 8.20474 37.8282 8.69952 36.725L8.77352 36.566Z"
        fill="#33539F"
      />
      <path
        fill-rule="evenodd"
        clip-rule="evenodd"
        d="M20.078 0.999993H20.08H19.998C9.52804 0.978993 1.02104 9.46799 1.00004 19.962C0.979039 30.456 9.45104 38.979 19.92 39H20.002C30.472 39.021 38.979 30.532 39 20.038C39.021 9.54399 30.549 1.02099 20.078 0.999993Z"
        stroke="#24124D"
        stroke-width="2"
      />
      <path
        d="M46 4C47.1046 4 48 3.10457 48 2C48 0.89543 47.1046 0 46 0C44.8954 0 44 0.89543 44 2C44 3.10457 44.8954 4 46 4Z"
        fill="#33539F"
      />
      <path
        d="M2 48C3.10457 48 4 47.1046 4 46C4 44.8954 3.10457 44 2 44C0.89543 44 0 44.8954 0 46C0 47.1046 0.89543 48 2 48Z"
        fill="#1EB8C1"
      />
      <path
        d="M16 14L11 20L16.09 26.08"
        stroke="#5333ED"
        stroke-width="3"
        stroke-linecap="round"
        stroke-linejoin="round"
      />
      <path
        d="M23.7597 14L28.7597 20L23.6797 26.08"
        stroke="#5333ED"
        stroke-width="3"
        stroke-linecap="round"
        stroke-linejoin="round"
      />
      <g style="mix-blend-mode: multiply;">
        <path
          d="M23.9096 14.01L15.8496 26.07"
          stroke="#04D5FE"
          stroke-width="3"
          stroke-linecap="round"
          stroke-linejoin="round"
        />
      </g>
    </symbol>
    <symbol
      width="48"
      height="48"
      viewBox="0 0 48 48"
      fill="none"
      id="feature-staging"
    >
      <path
        d="M16 0C21.958 0 27.156 3.257 29.91 8.087C29.3017 8.02988 28.691 8.00085 28.08 8H28C16.977 7.978 8.022 16.914 8 27.96C7.999 28.618 8.03 29.27 8.09 29.912C3.258 27.158 0 21.96 0 16C0 7.163 7.163 0 16 0Z"
        fill="#FFB300"
      />
      <path
        fill-rule="evenodd"
        clip-rule="evenodd"
        d="M28.078 8.99999H28.08H27.998C17.528 8.97899 9.02104 17.468 9.00004 27.962C8.97904 38.456 17.451 46.979 27.92 47H28.002C38.472 47.021 46.979 38.532 47 28.038C47.021 17.544 38.549 9.02099 28.078 8.99999Z"
        stroke="#24124D"
        stroke-width="2"
      />
      <path
        d="M4 48C6.20914 48 8 46.2091 8 44C8 41.7909 6.20914 40 4 40C1.79086 40 0 41.7909 0 44C0 46.2091 1.79086 48 4 48Z"
        fill="#E44848"
      />
      <path
        d="M46 4C47.1046 4 48 3.10457 48 2C48 0.89543 47.1046 0 46 0C44.8954 0 44 0.89543 44 2C44 3.10457 44.8954 4 46 4Z"
        fill="#E44848"
      />
      <g style="mix-blend-mode: multiply;">
        <path
          d="M23.3305 36.7815L15 31.0872L23.3305 25.4015L31.6695 31.0872L23.3305 36.7815Z"
          stroke="#04D5FE"
          stroke-width="3"
          stroke-linecap="round"
          stroke-linejoin="round"
        />
      </g>
      <path
        d="M31.6692 36.7815L23.3301 31.0872L31.6692 25.4015L39.9996 31.0872L31.6692 36.7815Z"
        stroke="#5333ED"
        stroke-width="3"
        stroke-linecap="round"
        stroke-linejoin="round"
      />
      <path
        d="M23.3301 21.9814V20H31.6692V21.9814"
        stroke="#5333ED"
        stroke-width="3"
        stroke-linecap="round"
        stroke-linejoin="round"
      />
    </symbol>
    <symbol
      width="48"
      height="48"
      viewBox="0 0 48 48"
      fill="none"
      id="feature-check"
    >
      <g style="mix-blend-mode: multiply;">
        <path
          d="M24.2 12H14.74L10 20.2L14.74 28.4H24.2L28.94 20.2L24.2 12Z"
          stroke="#04D5FE"
          stroke-width="3"
          stroke-linecap="round"
          stroke-linejoin="round"
        />
      </g>
      <path
        d="M18.3398 18.34L21.6098 21.61L28.1098 15.11"
        stroke="#5333ED"
        stroke-width="3"
        stroke-linecap="round"
        stroke-linejoin="round"
      />
      <path
        d="M39.9997 24C41.4321 24.0004 42.8381 24.3854 44.0708 25.1146C45.3036 25.8439 46.318 26.8908 47.0081 28.146C47.6981 29.4012 48.0385 30.8186 47.9937 32.2502C47.9489 33.6819 47.5206 35.0753 46.7534 36.2848C45.9862 37.4944 44.9084 38.4758 43.6324 39.1266C42.3564 39.7774 40.9291 40.0737 39.4995 39.9845C38.07 39.8953 36.6906 39.424 35.5053 38.6197C34.3201 37.8153 33.3726 36.7076 32.7617 35.412C36.2745 32.5025 38.687 28.4793 39.5987 24.01L39.7507 24.004L39.9997 24Z"
        fill="#76FBDD"
      />
      <path
        d="M8.7745 36.566C12.0619 38.8015 15.945 39.9979 19.9205 40H20.0005C21.3665 40.003 22.7005 39.868 23.9905 39.609C24.0494 40.8167 23.8338 42.022 23.3599 43.1344C22.886 44.2467 22.1661 45.2372 21.2543 46.0313C20.3425 46.8255 19.2626 47.4026 18.0957 47.7194C16.9289 48.0361 15.7053 48.0842 14.5172 47.8601C13.329 47.636 12.2071 47.1455 11.2358 46.4254C10.2645 45.7054 9.469 44.7745 8.90917 43.7028C8.34934 42.6311 8.03972 41.4464 8.00358 40.2379C7.96743 39.0293 8.20571 37.8282 8.7005 36.725L8.7745 36.566Z"
        fill="#5333ED"
      />
      <path
        fill-rule="evenodd"
        clip-rule="evenodd"
        d="M20.078 0.999978H20.08H19.998C9.52803 0.978978 1.02104 9.46799 1.00004 19.962C0.979039 30.456 9.45103 38.979 19.92 39H20.002C30.472 39.021 38.979 30.532 39 20.038C39.021 9.54399 30.549 1.02098 20.078 0.999978Z"
        stroke="#24124D"
        stroke-width="2"
      />
      <path
        d="M46 3.99999C47.1046 3.99999 48 3.10456 48 2C48 0.895429 47.1046 0 46 0C44.8954 0 44 0.895429 44 2C44 3.10456 44.8954 3.99999 46 3.99999Z"
        fill="#5333ED"
      />
      <path
        d="M2 48C3.10457 48 4 47.1046 4 46C4 44.8954 3.10457 44 2 44C0.89543 44 0 44.8954 0 46C0 47.1046 0.89543 48 2 48Z"
        fill="#76FBDD"
      />
    </symbol>
    <symbol
      width="48"
      height="48"
      viewBox="0 0 48 48"
      fill="none"
      id="feature-feedback"
    >
      <path
        d="M12 0C17.412 0 21.987 3.583 23.483 8.505C16.066 10.209 10.223 16.053 8.511 23.485C3.585 21.99 0 17.414 0 12C0 5.373 5.373 0 12 0Z"
        fill="#04D5FE"
      />
      <path
        fill-rule="evenodd"
        clip-rule="evenodd"
        d="M28.078 9H28.08H27.998C17.528 8.979 9.02104 17.468 9.00004 27.962C8.97904 38.456 17.451 46.979 27.92 47H28.002C38.472 47.021 46.979 38.532 47 28.038C47.021 17.544 38.549 9.021 28.078 9Z"
        stroke="#24124D"
        stroke-width="2"
      />
      <path
        d="M44 8C46.2091 8 48 6.20914 48 4C48 1.79086 46.2091 0 44 0C41.7909 0 40 1.79086 40 4C40 6.20914 41.7909 8 44 8Z"
        fill="#76FBDD"
      />
      <path
        d="M2 44C3.10457 44 4 43.1046 4 42C4 40.8954 3.10457 40 2 40C0.89543 40 0 40.8954 0 42C0 43.1046 0.89543 44 2 44Z"
        fill="#76FBDD"
      />
      <g style="mix-blend-mode: multiply;">
        <path
          d="M22.9992 33.0662L24.6915 35.2408L26.5023 33.0662H33.0092C34.602 33.055 36.1257 32.4144 37.2479 31.2842C38.3702 30.154 39 28.6258 39 27.0331V27.0331C39 25.433 38.3644 23.8985 37.233 22.767C36.1015 21.6356 34.567 21 32.9669 21H22.9992C21.405 21.0089 19.8792 21.6485 18.7551 22.779C17.631 23.9094 17 25.4389 17 27.0331V27.0331C17 28.6273 17.631 30.1567 18.7551 31.2872C19.8792 32.4176 21.405 33.0572 22.9992 33.0662V33.0662Z"
          stroke="#04D5FE"
          stroke-width="3"
          stroke-linecap="round"
          stroke-linejoin="round"
        />
      </g>
      <path
        d="M22.9739 28.5477C23.8338 28.5477 24.5308 27.8506 24.5308 26.9908C24.5308 26.1309 23.8338 25.4338 22.9739 25.4338C22.1141 25.4338 21.417 26.1309 21.417 26.9908C21.417 27.8506 22.1141 28.5477 22.9739 28.5477Z"
        fill="#5333ED"
      />
      <path
        d="M28.0501 28.5477C28.91 28.5477 29.607 27.8506 29.607 26.9908C29.607 26.1309 28.91 25.4338 28.0501 25.4338C27.1902 25.4338 26.4932 26.1309 26.4932 26.9908C26.4932 27.8506 27.1902 28.5477 28.0501 28.5477Z"
        fill="#5333ED"
      />
      <path
        d="M33.1272 28.5477C33.9871 28.5477 34.6842 27.8506 34.6842 26.9908C34.6842 26.1309 33.9871 25.4338 33.1272 25.4338C32.2674 25.4338 31.5703 26.1309 31.5703 26.9908C31.5703 27.8506 32.2674 28.5477 33.1272 28.5477Z"
        fill="#5333ED"
      />
    </symbol>
    <symbol
      width="61"
      height="61"
      viewBox="0 0 61 61"
      fill="none"
      id="feature-ticket"
    >
      <path
        d="M35 0C43.2837 0 50 6.71624 50 15V14.9825C45.7043 11.7512 40.4753 10.0026 35.1 9.99998H35C29.5905 9.98094 24.323 11.7306 20 14.9825C20.01 6.70624 26.7212 0 35 0Z"
        fill="#76FBDD"
      />
      <path
        fill-rule="evenodd"
        clip-rule="evenodd"
        d="M35.0976 11.25H35.1001H34.9976C21.9101 11.2238 11.2763 21.8351 11.25 34.9526C11.2238 48.0701 21.8138 58.7239 34.9001 58.7501H35.0026C48.0901 58.7764 58.7239 48.1651 58.7501 35.0476C58.7764 21.9301 48.1863 11.2763 35.0976 11.25Z"
        stroke="#24124D"
        stroke-width="3"
      />
      <path
        d="M5 60C7.76142 60 10 57.7614 10 55C10 52.2386 7.76142 50 5 50C2.23858 50 0 52.2386 0 55C0 57.7614 2.23858 60 5 60Z"
        fill="#76FBDD"
      />
      <path
        d="M10 15C12.7614 15 15 12.7614 15 9.99999C15 7.23857 12.7614 5 10 5C7.23858 5 5 7.23857 5 9.99999C5 12.7614 7.23858 15 10 15Z"
        fill="#04D5FE"
      />
      <path
        d="M57.5 4.99999C58.8807 4.99999 60 3.88071 60 2.5C60 1.11929 58.8807 0 57.5 0C56.1193 0 55 1.11929 55 2.5C55 3.88071 56.1193 4.99999 57.5 4.99999Z"
        fill="#FD2D55"
      />
      <path
        d="M47.1375 30.2509L46.35 29.4634C46.1823 29.2818 45.9646 29.154 45.7243 29.0962C45.484 29.0383 45.2319 29.053 45 29.1384C44.6033 29.3001 44.1783 29.3809 43.75 29.3759C42.9212 29.3759 42.1263 29.0467 41.5403 28.4606C40.9542 27.8745 40.625 27.0797 40.625 26.2509C40.62 25.8226 40.7008 25.3976 40.8625 25.0009C40.9589 24.7624 40.9795 24.5001 40.9213 24.2495C40.8632 23.999 40.7291 23.7725 40.5375 23.6009L39.75 22.8134C39.5093 22.6007 39.196 22.4888 38.875 22.5009H37.4C37.0721 22.5023 36.7578 22.6325 36.525 22.8634L22.8625 36.5259C22.6316 36.7587 22.5014 37.073 22.5 37.4009V38.8759C22.5014 39.2038 22.6316 39.5181 22.8625 39.7509L23.65 40.5384C23.8177 40.72 24.0354 40.8477 24.2757 40.9056C24.516 40.9634 24.7681 40.9488 25 40.8634C25.3967 40.7017 25.8217 40.6209 26.25 40.6259C27.0788 40.6259 27.8737 40.9551 28.4597 41.5412C29.0458 42.1272 29.375 42.9221 29.375 43.7509C29.38 44.1792 29.2992 44.6042 29.1375 45.0009C29.0411 45.2393 29.0205 45.5017 29.0787 45.7523C29.1368 46.0028 29.2709 46.2293 29.4625 46.4009L30.25 47.1884C30.4828 47.4193 30.7971 47.5495 31.125 47.5509H32.6C32.9279 47.5495 33.2422 47.4193 33.475 47.1884L47.1375 33.4759C47.3684 33.2431 47.4986 32.9288 47.5 32.6009V31.1259C47.4986 30.798 47.3684 30.4837 47.1375 30.2509V30.2509ZM35 37.5009C34.5055 37.5009 34.0222 37.3543 33.6111 37.0796C33.2 36.8049 32.8795 36.4144 32.6903 35.9576C32.5011 35.5008 32.4516 34.9981 32.548 34.5132C32.6445 34.0282 32.8826 33.5828 33.2322 33.2331C33.5819 32.8835 34.0273 32.6454 34.5123 32.5489C34.9972 32.4525 35.4999 32.502 35.9567 32.6912C36.4135 32.8804 36.804 33.2008 37.0787 33.612C37.3534 34.0231 37.5 34.5064 37.5 35.0009C37.5 35.6639 37.2366 36.2998 36.7678 36.7687C36.2989 37.2375 35.663 37.5009 35 37.5009Z"
        fill="#5333ED"
      />
    </symbol>

    <symbol
      width="61"
      height="61"
      viewBox="0 0 61 61"
      fill="none"
      id="feature-email"
    >
      <path
        d="M51 31C52.7904 31.0005 54.5479 31.4816 56.0889 32.3932C57.6299 33.3048 58.8978 34.6135 59.7604 36.1824C60.6229 37.7514 61.0484 39.5232 60.9924 41.3127C60.9364 43.1023 60.401 44.844 59.442 46.356C58.4831 47.868 57.1358 49.0947 55.5408 49.9082C53.9458 50.7217 52.1617 51.092 50.3747 50.9806C48.5878 50.8691 46.8635 50.2799 45.382 49.2745C43.9005 48.2691 42.7161 46.8844 41.9525 45.265C46.3435 41.628 49.359 36.5991 50.4987 31.0125L50.6887 31.005L51 31Z"
        fill="#76FBDD"
      />
      <path
        d="M11.9675 46.7075C16.0767 49.5019 20.9307 50.9974 25.9 51H26C27.7075 51.0038 29.375 50.835 30.9875 50.5113C31.0611 52.0209 30.7916 53.5275 30.1992 54.918C29.6068 56.3084 28.707 57.5465 27.5673 58.5392C26.4276 59.5319 25.0777 60.2533 23.6191 60.6492C22.1605 61.0451 20.6311 61.1053 19.1459 60.8252C17.6607 60.545 16.2583 59.9319 15.0441 59.0318C13.83 58.1317 12.8356 56.9681 12.1358 55.6285C11.4361 54.2889 11.049 52.8081 11.0039 51.2973C10.9587 49.7866 11.2565 48.2853 11.875 46.9063L11.9675 46.7075Z"
        fill="#5333ED"
      />
      <path
        fill-rule="evenodd"
        clip-rule="evenodd"
        d="M26.0975 2.25005H26.1H25.9975C12.91 2.2238 2.2763 12.8351 2.25005 25.9526C2.2238 39.0701 12.8138 49.7239 25.9 49.7501H26.0025C39.09 49.7764 49.7238 39.1651 49.75 26.0476C49.7763 12.9301 39.1863 2.2763 26.0975 2.25005Z"
        stroke="#24124D"
        stroke-width="3"
      />
      <path
        d="M58.5 5.99999C59.8807 5.99999 61 4.88071 61 3.5C61 2.11929 59.8807 1 58.5 1C57.1193 1 56 2.11929 56 3.5C56 4.88071 57.1193 5.99999 58.5 5.99999Z"
        fill="#5333ED"
      />
      <path
        d="M3.5 61C4.88071 61 6 59.8807 6 58.5C6 57.1193 4.88071 56 3.5 56C2.11929 56 1 57.1193 1 58.5C1 59.8807 2.11929 61 3.5 61Z"
        fill="#76FBDD"
      />
      <path
        d="M26 13.5C22.6848 13.5 19.5054 14.817 17.1612 17.1612C14.817 19.5054 13.5 22.6848 13.5 26C13.5 29.3152 14.817 32.4946 17.1612 34.8388C19.5054 37.183 22.6848 38.5 26 38.5C28.3875 38.5 32.0125 37.525 32.0125 36.5875C32.0149 36.473 31.9846 36.3603 31.925 36.2625L31.3 35.175C31.243 35.0837 31.1638 35.0083 31.0699 34.9558C30.9759 34.9034 30.8701 34.8756 30.7625 34.875C29.2654 35.5623 27.6464 35.9447 26 36C24.0222 36 22.0888 35.4135 20.4443 34.3147C18.7998 33.2159 17.5181 31.6541 16.7612 29.8268C16.0043 27.9996 15.8063 25.9889 16.1921 24.0491C16.578 22.1093 17.5304 20.3275 18.9289 18.9289C20.3275 17.5304 22.1093 16.578 24.0491 16.1921C25.9889 15.8063 27.9996 16.0043 29.8268 16.7612C31.6541 17.5181 33.2159 18.7998 34.3147 20.4443C35.4135 22.0888 36 24.0222 36 26C36 27.25 35.1 30.0875 32.4 30.0875C32.2377 30.0998 32.0748 30.0998 31.9125 30.0875C30.8875 29.875 30.2375 28.9875 30.525 27.425L31.775 20.5375C31.8002 20.4441 31.8033 20.3462 31.7842 20.2514C31.7651 20.1566 31.7242 20.0676 31.6649 19.9912C31.6055 19.9149 31.5292 19.8534 31.4421 19.8115C31.3549 19.7697 31.2592 19.7486 31.1625 19.75H29.9125C29.7666 19.7505 29.6256 19.8021 29.5137 19.8957C29.4019 19.9893 29.3263 20.119 29.3 20.2625L29.2 20.825C28.3497 20.1132 27.2713 19.7315 26.1625 19.75C24.7126 19.7846 23.3199 20.3223 22.223 21.271C21.1261 22.2196 20.3932 23.5203 20.15 24.95L19.8375 26.775C19.6844 27.6115 19.7534 28.4735 20.0375 29.275C20.3648 30.1524 20.9598 30.9045 21.7383 31.425C22.5167 31.9454 23.4392 32.2078 24.375 32.175C25.9569 32.1313 27.4593 31.472 28.5625 30.3375C28.8993 31.0594 29.4452 31.6635 30.1295 32.0714C30.8137 32.4793 31.6048 32.6721 32.4 32.625C36.5625 32.5875 38.5 28.65 38.5 26C38.5 24.3585 38.1767 22.733 37.5485 21.2165C36.9203 19.6999 35.9996 18.3219 34.8388 17.1612C33.6781 16.0004 32.3001 15.0797 30.7835 14.4515C29.267 13.8233 27.6415 13.5 26 13.5V13.5ZM22.25 27.7375C22.2341 27.5754 22.2341 27.4121 22.25 27.25L22.5875 25.425C22.7608 24.5516 23.2269 23.7634 23.9087 23.1907C24.5905 22.618 25.4473 22.295 26.3375 22.275C27.5875 22.275 28.7 23.1625 28.5 24.3L27.925 27.425C27.7318 28.045 27.3699 28.599 26.8798 29.025C26.3898 29.4511 25.7908 29.7324 25.15 29.8375C24.9502 29.8499 24.7498 29.8499 24.55 29.8375C24.2591 29.8597 23.9667 29.8221 23.6908 29.7271C23.415 29.632 23.1615 29.4815 22.946 29.2847C22.7305 29.088 22.5576 28.8492 22.4379 28.5831C22.3182 28.317 22.2543 28.0292 22.25 27.7375V27.7375Z"
        fill="#04BFE4"
      />
    </symbol>

    <symbol
      width="61"
      height="61"
      viewBox="0 0 61 61"
      fill="none"
      id="feature-support"
    >
      <path
        d="M57.2737 37.375C59.0524 39.8989 60.0049 42.9123 60 46C60 54.2837 53.2837 61 45 61C38.3375 61 32.6875 56.655 30.7325 50.6437C32.1093 50.8785 33.5033 50.9976 34.9 51H35C44.6162 51.0187 52.9737 45.5837 57.155 37.605L57.2737 37.375Z"
        fill="#FD2D55"
      />
      <path
        fill-rule="evenodd"
        clip-rule="evenodd"
        d="M35.0975 2.25005H35.1H34.9975C21.91 2.2238 11.2763 12.8351 11.25 25.9526C11.2238 39.0701 21.8138 49.7239 34.9 49.7501H35.0025C48.09 49.7764 58.7238 39.1651 58.75 26.0476C58.7763 12.9301 48.1863 2.2763 35.0975 2.25005Z"
        stroke="#24124D"
        stroke-width="3"
      />
      <path
        d="M15 61C17.7614 61 20 58.7614 20 56C20 53.2386 17.7614 51 15 51C12.2386 51 10 53.2386 10 56C10 58.7614 12.2386 61 15 61Z"
        fill="#5333ED"
      />
      <path
        d="M5 11C7.76142 11 10 8.76141 10 5.99999C10 3.23857 7.76142 1 5 1C2.23858 1 0 3.23857 0 5.99999C0 8.76141 2.23858 11 5 11Z"
        fill="#5333ED"
      />
      <path
        d="M7.5 46C8.88071 46 10 44.8807 10 43.5C10 42.1193 8.88071 41 7.5 41C6.11929 41 5 42.1193 5 43.5C5 44.8807 6.11929 46 7.5 46Z"
        fill="#FD2D55"
      />
      <path
        d="M46.25 27.25V32.25C46.25 32.913 45.9866 33.5489 45.5178 34.0178C45.0489 34.4866 44.413 34.75 43.75 34.75V36C43.75 36.9946 43.3549 37.9484 42.6517 38.6517C41.9484 39.3549 40.9946 39.75 40 39.75H36.25C35.9185 39.75 35.6005 39.6183 35.3661 39.3839C35.1317 39.1495 35 38.8315 35 38.5V37.875C35 37.7092 35.0658 37.5503 35.1831 37.4331C35.3003 37.3158 35.4592 37.25 35.625 37.25H40C40.3315 37.25 40.6495 37.1183 40.8839 36.8839C41.1183 36.6495 41.25 36.3315 41.25 36V34.75C40.9185 34.75 40.6005 34.6183 40.3661 34.3839C40.1317 34.1495 40 33.8315 40 33.5V26C40 25.6685 40.1317 25.3505 40.3661 25.1161C40.6005 24.8817 40.9185 24.75 41.25 24.75V21C41.25 19.3424 40.5915 17.7527 39.4194 16.5806C38.2473 15.4085 36.6576 14.75 35 14.75C33.3424 14.75 31.7527 15.4085 30.5806 16.5806C29.4085 17.7527 28.75 19.3424 28.75 21V24.75C29.0815 24.75 29.3995 24.8817 29.6339 25.1161C29.8683 25.3505 30 25.6685 30 26V33.5C30 33.8315 29.8683 34.1495 29.6339 34.3839C29.3995 34.6183 29.0815 34.75 28.75 34.75H26.25C25.587 34.75 24.9511 34.4866 24.4822 34.0178C24.0134 33.5489 23.75 32.913 23.75 32.25V27.25C23.75 26.587 24.0134 25.9511 24.4822 25.4822C24.9511 25.0134 25.587 24.75 26.25 24.75V21C26.25 18.6794 27.1719 16.4538 28.8128 14.8128C30.4538 13.1719 32.6794 12.25 35 12.25C37.3206 12.25 39.5462 13.1719 41.1872 14.8128C42.8281 16.4538 43.75 18.6794 43.75 21V24.75C44.413 24.75 45.0489 25.0134 45.5178 25.4822C45.9866 25.9511 46.25 26.587 46.25 27.25Z"
        fill="#5333ED"
      />
    </symbol>
    <symbol
      width="1144"
      height="280"
      viewBox="0 0 1144 280"
      fill="none"
      id="feature-bg-line"
    >
      <path
        d="M1 96.7421C1 96.7421 124.672 -0.294895 178.34 1.01311C200.944 1.55911 166.465 37.4571 178.578 39.2451C190.692 41.0341 224.84 5.74711 266.933 18.9951C332.25 39.5481 259.692 166.494 397.743 208.02C535.793 249.546 595.441 175.357 674.683 172.128C753.923 168.9 925.543 284.984 990.466 278.758C1055.39 272.532 850.564 98.4511 890.774 64.7681C913.75 45.5241 967.242 76.7151 988.222 71.8041C1009.2 66.8921 980.115 22.6241 998.239 18.9351C1016.36 15.2471 1143 84.7701 1143 84.7701"
        stroke="#512DA8"
        stroke-width="2"
      />
    </symbol>
    <symbol id="check" width="12" height="10" viewBox="0 0 12 10">
      <path
        fill="#00B67A"
        fill-rule="nonzero"
        d="M12 2.258a.694.694 0 0 1-.217.515L6.178 8.258l-1.053 1.03A.725.725 0 0 1 4.6 9.5a.725.725 0 0 1-.527-.212L3.02 8.258.217 5.515A.694.694 0 0 1 0 5c0-.202.072-.374.217-.515l1.053-1.03a.725.725 0 0 1 .526-.213c.207 0 .382.071.527.213l2.276 2.234L9.677.712A.725.725 0 0 1 10.204.5c.206 0 .382.07.526.212l1.053 1.03a.694.694 0 0 1 .217.516z"
      />
    </symbol>
    <symbol id="location" viewBox="0 0 24 24" data-name="Layer 1">
      <path
        d="M21.5,11H19.93A8,8,0,0,0,13,4.07V2.5a.5.5,0,0,0-.5-.5h-1a.5.5,0,0,0-.5.5V4.07A8,8,0,0,0,4.07,11H2.5a.5.5,0,0,0-.5.5v1a.5.5,0,0,0,.5.5H4.07A8,8,0,0,0,11,19.93V21.5a.5.5,0,0,0,.5.5h1a.5.5,0,0,0,.5-.5V19.93A8,8,0,0,0,19.93,13H21.5a.5.5,0,0,0,.5-.5v-1A.5.5,0,0,0,21.5,11ZM12,18a6,6,0,1,1,6-6A6,6,0,0,1,12,18Zm0-8a2,2,0,1,0,2,2A2,2,0,0,0,12,10Z"
      />
    </symbol>
  </defs>
</svg>
