<svg width="252" height="222" viewBox="0 0 252 222" fill="none" xmlns="http://www.w3.org/2000/svg">
<g clip-path="url(#clip0)">
<path d="M2.13563 197.504C1.42377 190.759 9.49156 190.404 8.66105 184.251C7.59326 175.849 1.66105 168.748 3.79905e-05 160.465C-0.474538 158.216 2.49156 157.151 4.03394 158.571C5.10173 159.518 6.05089 160.465 7.11868 161.411C10.3221 153.956 5.10173 145.081 4.7458 137.507C4.62716 135.614 6.52546 134.194 8.30512 135.259C16.1356 139.993 18.0339 149.104 23.8475 155.376C24.5594 153.72 25.3899 152.181 26.4577 150.525C27.4068 149.104 29.6611 149.341 30.3729 150.761C33.9322 158.69 32.6272 166.973 30.2543 175.139C28.8305 179.99 27.0509 184.842 26.339 189.931C26.2204 191.114 26.1017 192.416 26.1017 193.599C26.9322 192.534 27.5255 191.351 28 190.049C29.3051 187.446 30.3729 184.842 31.5594 182.239C32.3899 180.345 35.7119 180.227 35.9492 182.594C37.2543 193.717 34.1695 204.486 26.8136 213.361C26.4577 213.835 25.8644 214.071 25.3899 214.19C18.0339 220.817 2.96614 204.249 2.13563 197.504Z" fill="#D3E1FD"/>
<path d="M11.9831 193.481C14.4746 195.493 17.4407 197.031 20.5255 197.859C20.2882 192.416 19.5763 187.091 18.7458 181.647C18.3899 181.529 18.2712 181.055 18.6272 180.7C18.2712 178.334 17.7966 176.085 17.3221 173.719C17.2034 173.719 17.2034 173.719 17.0848 173.719C13.1695 173.009 9.8475 170.878 7.83055 167.565C7.47462 166.973 8.54241 166.5 8.89834 167.092C10.678 169.932 13.6441 171.943 17.0848 172.654C15.6611 166.145 14.1187 159.636 12.4577 153.128C12.339 152.418 13.4068 152.181 13.5255 152.891C15.7797 161.767 18.0339 170.76 19.5763 179.872C21.1187 178.452 21.5933 175.967 22.0678 174.074C22.7797 171.589 23.2543 169.103 23.6102 166.618C23.7289 165.908 24.7966 166.027 24.7966 166.737C24.3221 169.932 23.6102 173.127 22.6611 176.322C22.0678 178.215 21.4746 179.99 19.8136 181.174C20.7628 186.854 21.4746 192.534 21.7119 198.214C21.9492 198.333 21.9492 198.688 21.7119 198.924C21.8305 201.173 21.8305 203.539 21.8305 205.788C24.2034 204.841 25.9831 203.066 26.695 200.699C26.9322 199.989 28 200.344 27.7628 201.054C26.9322 203.658 24.9153 205.788 22.1865 206.853C22.0678 206.971 21.8305 206.853 21.7119 206.853C21.5933 209.101 21.4746 211.35 21.2373 213.716C21.1187 214.426 20.0509 214.308 20.0509 213.598C20.5255 208.746 20.6441 203.894 20.4068 199.043C16.9661 198.214 13.8814 196.558 11.1526 194.428C10.7966 193.954 11.3899 193.007 11.9831 193.481Z" fill="#93B1FB"/>
<path d="M65.4915 156.323C59.7966 153.483 53.6271 152.655 47.339 154.193C44.1356 154.903 41.0509 156.205 38.2034 157.743C37.017 158.453 35.7119 159.163 34.5254 159.991C33.5763 160.701 31.2034 163.068 29.4237 164.133C29.3051 163.068 28.9492 162.122 28.2373 160.938C27.6441 159.873 26.1017 159.755 25.3898 160.82C22.1864 165.435 19.6949 170.523 18.3898 176.085C17.7966 178.334 17.5593 180.7 17.322 183.067C17.2034 183.896 17.2034 187.446 15.5424 187.209C14.9492 187.091 13.4068 183.067 13.1695 182.594C12.4576 181.174 10.0848 181.529 10.0848 183.185C9.72882 192.297 12.2203 200.699 17.0848 208.155C17.0848 208.51 17.322 208.746 17.5593 209.101C17.678 209.22 17.678 209.22 17.7966 209.338C18.0339 209.811 18.3898 210.166 18.7458 210.64C19.2203 211.231 19.6949 211.35 20.2881 211.231C25.6271 214.781 31.9153 215.846 37.3729 211.468C41.7627 208.036 45.7966 203.658 49.5932 199.634C51.8475 197.268 53.7458 195.019 52.0848 191.824C51.6102 190.996 50.661 190.759 49.8305 191.114C48.6441 191.587 47.4576 191.942 46.3898 192.534C44.017 193.599 43.661 194.901 43.661 192.179C43.661 189.221 45.4407 186.736 47.2203 184.487C49.4746 181.529 52.5593 178.334 53.1526 174.429C53.6271 171.233 52.0848 171.233 50.7797 168.985C47.1017 163.068 61.4576 160.465 64.7797 159.518C66.0848 159.045 66.7966 157.033 65.4915 156.323Z" fill="#7A97FA"/>
<path d="M43.1864 173.009C41.0508 175.02 38.322 175.73 35.4745 175.02C38.2034 170.523 41.2881 166.263 44.8474 162.358C45.322 161.885 44.4915 161.175 44.0169 161.648C36.4237 169.932 30.8474 179.635 27.2881 190.049C24.7966 183.896 25.6271 177.15 26.5762 170.76C26.6949 170.05 25.6271 169.932 25.5084 170.642C24.4406 177.387 23.6101 184.369 26.3389 190.877C26.4576 191.114 26.6949 191.232 26.9322 191.232C25.5084 195.493 24.5593 199.871 23.8474 204.249C20.5254 202.474 17.7966 199.753 16.1356 196.321C15.7796 195.729 14.8305 196.084 15.0678 196.676C16.8474 200.463 19.8135 203.539 23.6101 205.433C23.2542 207.918 23.0169 210.403 23.0169 212.888C23.0169 213.598 24.0847 213.716 24.0847 213.006C24.2034 208.865 24.6779 204.604 25.5084 200.581C29.8983 201.646 34.1695 201.291 38.4406 199.753C39.1525 199.516 38.6779 198.451 38.0847 198.688C34.0508 200.226 29.8983 200.463 25.8644 199.398C27.644 191.114 30.7288 183.067 35 175.73C35.1186 175.849 35.1186 175.849 35.2373 175.967C38.322 176.677 41.5254 175.967 43.7796 173.837C44.3728 173.364 43.7796 172.535 43.1864 173.009Z" fill="#DBE6FD"/>
<path d="M92.8982 85.7942H51.3728V95.1429H92.8982V85.7942Z" fill="#4054D5"/>
<path d="M127.898 85.7942H93.0168V95.1429H127.898V85.7942Z" fill="#354BC3"/>
<path d="M102.39 205.67H46.2712C44.7288 205.67 43.4237 204.368 43.4237 202.829V96.6812C43.4237 95.1428 44.7288 93.8411 46.2712 93.8411H102.39C103.932 93.8411 105.237 95.1428 105.237 96.6812V202.829C105.237 204.368 104.051 205.67 102.39 205.67Z" fill="#4054D5"/>
<path d="M133.356 205.67H77.2372C75.6949 205.67 74.3898 204.368 74.3898 202.829V96.6812C74.3898 95.1428 75.6949 93.8411 77.2372 93.8411H133.356C134.898 93.8411 136.203 95.1428 136.203 96.6812V202.829C136.203 204.368 134.898 205.67 133.356 205.67Z" fill="#4054D5"/>
<path d="M98.2372 205.67H42.1186C40.5762 205.67 39.2711 204.368 39.2711 202.829V96.6812C39.2711 95.1428 40.5762 93.8411 42.1186 93.8411H98.2372C99.7796 93.8411 101.085 95.1428 101.085 96.6812V202.829C101.085 204.368 99.7796 205.67 98.2372 205.67Z" fill="#6A85FA"/>
<path d="M130.627 88.871H77.8304C76.288 88.871 75.1016 87.6876 75.1016 86.1493V80.8241C75.1016 79.2857 76.288 78.1023 77.8304 78.1023H130.627C132.169 78.1023 133.356 79.2857 133.356 80.8241V86.1493C133.356 87.6876 132.169 88.871 130.627 88.871Z" fill="#4054D5"/>
<path d="M97.644 88.871H44.8473C43.305 88.871 42.1185 87.6876 42.1185 86.1493V80.8241C42.1185 79.2857 43.305 78.1023 44.8473 78.1023H97.644C99.1863 78.1023 100.373 79.2857 100.373 80.8241V86.1493C100.254 87.6876 99.0677 88.871 97.644 88.871Z" fill="#6A85FA"/>
<path d="M94.322 200.463H45.9152C44.4915 200.463 43.4237 199.279 43.4237 197.978V101.533C43.4237 100.113 44.6101 99.048 45.9152 99.048H94.322C95.7458 99.048 96.8135 100.231 96.8135 101.533V197.859C96.9322 199.398 95.7458 200.463 94.322 200.463Z" fill="#93B1FB"/>
<path d="M138.932 101.888H106.542V128.396H138.932V101.888Z" fill="#9FB8FC"/>
<path d="M104.759 128.371H106.538V101.863H104.759V128.371Z" fill="#6A85FA"/>
<path d="M132.407 114.432H116.864V115.733H132.407V114.432Z" fill="#6A85FA"/>
<path d="M118.881 115.142C118.881 114.077 117.932 113.13 116.864 113.13C115.797 113.13 114.847 114.077 114.847 115.142C114.847 116.207 115.797 117.154 116.864 117.154C118.051 117.154 118.881 116.207 118.881 115.142Z" fill="#4054D5"/>
<path d="M134.424 115.142C134.424 114.077 133.475 113.13 132.407 113.13C131.339 113.13 130.39 114.077 130.39 115.142C130.39 116.207 131.339 117.154 132.407 117.154C133.475 117.154 134.424 116.207 134.424 115.142Z" fill="#4054D5"/>
<path d="M138.932 133.129H106.542V159.636H138.932V133.129Z" fill="#9FB8FC"/>
<path d="M104.759 159.769H106.538V133.261H104.759V159.769Z" fill="#6A85FA"/>
<path d="M132.407 144.963H116.864V146.264H132.407V144.963Z" fill="#6A85FA"/>
<path d="M118.881 145.673C118.881 144.608 117.932 143.661 116.864 143.661C115.797 143.661 114.847 144.608 114.847 145.673C114.847 146.738 115.797 147.684 116.864 147.684C118.051 147.684 118.881 146.738 118.881 145.673Z" fill="#4054D5"/>
<path d="M134.424 145.673C134.424 144.608 133.475 143.661 132.407 143.661C131.339 143.661 130.39 144.608 130.39 145.673C130.39 146.738 131.339 147.684 132.407 147.684C133.475 147.684 134.424 146.738 134.424 145.673Z" fill="#4054D5"/>
<path d="M132.763 184.487H108.441C108.441 184.487 106.898 168.63 108.203 163.423C113.305 164.015 132.881 164.252 132.881 164.252V184.487H132.763Z" fill="#DAE5FD"/>
<path d="M133.475 184.842H109.034C109.034 184.842 108.322 168.985 109.034 163.897C112.949 164.37 133.475 164.607 133.475 164.607V184.842Z" fill="#EAF1EF"/>
<path d="M159.458 164.133H137.983V184.369H159.458V164.133Z" fill="#DAE5FD"/>
<path d="M135.254 184.014H110.814C110.814 184.014 109.271 168.157 110.576 162.95C115.678 163.542 135.254 163.778 135.254 163.778V184.014Z" fill="#DAE5FD"/>
<path d="M136.678 184.487H112.237C112.237 184.487 111.525 168.63 112.237 163.542C116.153 164.015 136.678 164.252 136.678 164.252V184.487Z" fill="#EAF1EF"/>
<path d="M139.525 184.487H115.203C115.203 184.487 113.661 168.63 114.966 163.423C120.068 164.015 139.644 164.252 139.644 164.252V184.487H139.525Z" fill="#DAE5FD"/>
<path d="M140.237 184.842H115.797C115.797 184.842 115.085 168.985 115.797 163.897C119.712 164.37 140.237 164.607 140.237 164.607V184.842Z" fill="#EAF1EF"/>
<path d="M142.017 184.014H117.695C117.695 184.014 116.153 168.157 117.458 162.95C122.559 163.542 142.136 163.778 142.136 163.778V184.014H142.017Z" fill="#DAE5FD"/>
<path d="M143.441 184.487H119C119 184.487 118.288 168.63 119 163.542C122.915 164.015 143.441 164.252 143.441 164.252V184.487Z" fill="#EAF1EF"/>
<path d="M144.627 184.487H120.186C120.186 184.487 118.644 168.63 119.949 163.423C125.051 164.015 144.627 164.252 144.627 164.252V184.487Z" fill="#DAE5FD"/>
<path d="M145.22 184.842H120.78C120.78 184.842 120.068 168.985 120.78 163.897C124.695 164.37 145.22 164.607 145.22 164.607V184.842Z" fill="#EAF1EF"/>
<path d="M147 184.014H122.559C122.559 184.014 121.017 168.157 122.322 162.95C127.424 163.542 147 163.778 147 163.778V184.014Z" fill="#DAE5FD"/>
<path d="M148.424 184.487H123.983C123.983 184.487 123.271 168.63 123.983 163.542C127.898 164.015 148.424 164.252 148.424 164.252V184.487Z" fill="#EAF1EF"/>
<path d="M153.051 184.487H128.61C128.61 184.487 127.068 168.63 128.373 163.423C133.475 164.015 153.051 164.252 153.051 164.252V184.487Z" fill="#DAE5FD"/>
<path d="M153.644 184.842H129.322C129.322 184.842 128.61 168.985 129.322 163.897C133.237 164.37 153.763 164.607 153.763 164.607V184.842H153.644Z" fill="#EAF1EF"/>
<path d="M155.542 184.014H131.102C131.102 184.014 129.559 168.157 130.864 162.95C135.966 163.542 155.542 163.778 155.542 163.778V184.014Z" fill="#DAE5FD"/>
<path d="M156.847 184.487H132.407C132.407 184.487 131.695 168.63 132.407 163.542C136.322 164.015 156.847 164.252 156.847 164.252V184.487Z" fill="#EAF1EF"/>
<path d="M158.983 184.487H137.508C137.508 184.487 135.966 168.63 137.271 163.423C142.373 164.015 159.102 164.252 159.102 164.252V184.487H158.983Z" fill="#DAE5FD"/>
<path d="M159.576 184.842H138.102C138.102 184.842 137.39 168.985 138.102 163.897C142.017 164.37 159.576 164.607 159.576 164.607V184.842Z" fill="#EAF1EF"/>
<path d="M161.475 184.014H140C140 184.014 138.458 168.157 139.763 162.95C144.864 163.542 161.593 163.778 161.593 163.778V184.014H161.475Z" fill="#DAE5FD"/>
<path d="M162.78 184.487H141.305C141.305 184.487 140.593 168.63 141.305 163.542C145.22 164.015 162.78 164.252 162.78 164.252V184.487Z" fill="#EAF1EF"/>
<path d="M104.759 191.047H106.538V164.539H104.759V191.047Z" fill="#93B1FB"/>
<path d="M106.468 189.627H134.943V165.841H106.468V189.627Z" fill="#6A85FA"/>
<path d="M165.271 164.488H132.881V190.996H165.271V164.488Z" fill="#9FB8FC"/>
<path d="M158.508 177.742H142.966V179.044H158.508V177.742Z" fill="#6A85FA"/>
<path d="M144.983 178.452C144.983 177.387 144.034 176.44 142.966 176.44C141.898 176.44 140.949 177.387 140.949 178.452C140.949 179.517 141.898 180.464 142.966 180.464C144.152 180.464 144.983 179.517 144.983 178.452Z" fill="#4054D5"/>
<path d="M158.508 180.464C159.622 180.464 160.525 179.563 160.525 178.452C160.525 177.341 159.622 176.44 158.508 176.44C157.394 176.44 156.491 177.341 156.491 178.452C156.491 179.563 157.394 180.464 158.508 180.464Z" fill="#4054D5"/>
<path d="M93.3729 104.846H90.8813V107.332H93.3729V104.846Z" fill="white"/>
<path d="M49.3559 104.846H46.8644V107.332H49.3559V104.846Z" fill="white"/>
<path d="M53.7457 104.846H51.2542V107.332H53.7457V104.846Z" fill="white"/>
<path d="M62.5253 104.846H60.0338V107.332H62.5253V104.846Z" fill="white"/>
<path d="M67.0339 104.846H64.5424V107.332H67.0339V104.846Z" fill="white"/>
<path d="M71.4237 104.846H68.9321V107.332H71.4237V104.846Z" fill="white"/>
<path d="M75.8135 104.846H73.322V107.332H75.8135V104.846Z" fill="white"/>
<path d="M80.2033 104.846H77.7118V107.332H80.2033V104.846Z" fill="white"/>
<path d="M84.5932 104.846H82.1017V107.332H84.5932V104.846Z" fill="white"/>
<path d="M93.3729 109.58H90.8813V112.065H93.3729V109.58Z" fill="white"/>
<path d="M49.3559 109.58H46.8644V112.065H49.3559V109.58Z" fill="white"/>
<path d="M53.7457 109.58H51.2542V112.065H53.7457V109.58Z" fill="white"/>
<path d="M67.0339 109.58H64.5424V112.065H67.0339V109.58Z" fill="white"/>
<path d="M71.4237 109.58H68.9321V112.065H71.4237V109.58Z" fill="white"/>
<path d="M75.8135 109.58H73.322V112.065H75.8135V109.58Z" fill="white"/>
<path d="M80.2033 109.58H77.7118V112.065H80.2033V109.58Z" fill="white"/>
<path d="M84.5932 109.58H82.1017V112.065H84.5932V109.58Z" fill="white"/>
<path d="M88.983 114.432H86.4915V116.917H88.983V114.432Z" fill="white"/>
<path d="M93.3729 114.432H90.8813V116.917H93.3729V114.432Z" fill="white"/>
<path d="M49.3559 114.432H46.8644V116.917H49.3559V114.432Z" fill="white"/>
<path d="M53.7457 114.432H51.2542V116.917H53.7457V114.432Z" fill="white"/>
<path d="M58.1356 114.432H55.644V116.917H58.1356V114.432Z" fill="white"/>
<path d="M62.5253 114.432H60.0338V116.917H62.5253V114.432Z" fill="white"/>
<path d="M67.0339 114.432H64.5424V116.917H67.0339V114.432Z" fill="white"/>
<path d="M80.2033 114.432H77.7118V116.917H80.2033V114.432Z" fill="white"/>
<path d="M84.5932 114.432H82.1017V116.917H84.5932V114.432Z" fill="white"/>
<path d="M88.983 119.284H86.4915V121.769H88.983V119.284Z" fill="white"/>
<path d="M49.3559 119.284H46.8644V121.769H49.3559V119.284Z" fill="white"/>
<path d="M53.7457 119.284H51.2542V121.769H53.7457V119.284Z" fill="white"/>
<path d="M58.1356 119.284H55.644V121.769H58.1356V119.284Z" fill="white"/>
<path d="M62.5253 119.284H60.0338V121.769H62.5253V119.284Z" fill="white"/>
<path d="M67.0339 119.284H64.5424V121.769H67.0339V119.284Z" fill="white"/>
<path d="M80.2033 119.284H77.7118V121.769H80.2033V119.284Z" fill="white"/>
<path d="M84.5932 119.284H82.1017V121.769H84.5932V119.284Z" fill="white"/>
<path d="M88.983 127.685H86.4915V130.171H88.983V127.685Z" fill="white"/>
<path d="M93.3729 127.685H90.8813V130.171H93.3729V127.685Z" fill="white"/>
<path d="M49.3559 127.685H46.8644V130.171H49.3559V127.685Z" fill="white"/>
<path d="M53.7457 127.685H51.2542V130.171H53.7457V127.685Z" fill="white"/>
<path d="M58.1356 127.685H55.644V130.171H58.1356V127.685Z" fill="white"/>
<path d="M62.5253 127.685H60.0338V130.171H62.5253V127.685Z" fill="white"/>
<path d="M67.0339 127.685H64.5424V130.171H67.0339V127.685Z" fill="white"/>
<path d="M75.8135 127.685H73.322V130.171H75.8135V127.685Z" fill="white"/>
<path d="M80.2033 127.685H77.7118V130.171H80.2033V127.685Z" fill="white"/>
<path d="M84.5932 127.685H82.1017V130.171H84.5932V127.685Z" fill="white"/>
<path d="M88.983 132.537H86.4915V135.022H88.983V132.537Z" fill="white"/>
<path d="M93.3729 132.537H90.8813V135.022H93.3729V132.537Z" fill="white"/>
<path d="M49.3559 132.537H46.8644V135.022H49.3559V132.537Z" fill="white"/>
<path d="M58.1356 132.537H55.644V135.022H58.1356V132.537Z" fill="white"/>
<path d="M62.5253 132.537H60.0338V135.022H62.5253V132.537Z" fill="white"/>
<path d="M75.8135 132.537H73.322V135.022H75.8135V132.537Z" fill="white"/>
<path d="M80.2033 132.537H77.7118V135.022H80.2033V132.537Z" fill="white"/>
<path d="M84.5932 132.537H82.1017V135.022H84.5932V132.537Z" fill="white"/>
<path d="M93.3729 137.389H90.8813V139.874H93.3729V137.389Z" fill="white"/>
<path d="M49.3559 137.389H46.8644V139.874H49.3559V137.389Z" fill="white"/>
<path d="M62.5253 137.389H60.0338V139.874H62.5253V137.389Z" fill="white"/>
<path d="M67.0339 137.389H64.5424V139.874H67.0339V137.389Z" fill="white"/>
<path d="M71.4237 137.389H68.9321V139.874H71.4237V137.389Z" fill="white"/>
<path d="M75.8135 137.389H73.322V139.874H75.8135V137.389Z" fill="white"/>
<path d="M80.2033 137.389H77.7118V139.874H80.2033V137.389Z" fill="white"/>
<path d="M88.983 142.241H86.4915V144.726H88.983V142.241Z" fill="white"/>
<path d="M93.3729 142.241H90.8813V144.726H93.3729V142.241Z" fill="white"/>
<path d="M49.3559 142.241H46.8644V144.726H49.3559V142.241Z" fill="white"/>
<path d="M62.5253 142.241H60.0338V144.726H62.5253V142.241Z" fill="white"/>
<path d="M67.0339 142.241H64.5424V144.726H67.0339V142.241Z" fill="white"/>
<path d="M71.4237 142.241H68.9321V144.726H71.4237V142.241Z" fill="white"/>
<path d="M75.8135 142.241H73.322V144.726H75.8135V142.241Z" fill="white"/>
<path d="M80.2033 142.241H77.7118V144.726H80.2033V142.241Z" fill="white"/>
<path d="M93.3729 150.643H90.8813V153.128H93.3729V150.643Z" fill="white"/>
<path d="M49.3559 150.643H46.8644V153.128H49.3559V150.643Z" fill="white"/>
<path d="M53.7457 150.643H51.2542V153.128H53.7457V150.643Z" fill="white"/>
<path d="M62.5253 150.643H60.0338V153.128H62.5253V150.643Z" fill="white"/>
<path d="M67.0339 150.643H64.5424V153.128H67.0339V150.643Z" fill="white"/>
<path d="M71.4237 150.643H68.9321V153.128H71.4237V150.643Z" fill="white"/>
<path d="M75.8135 150.643H73.322V153.128H75.8135V150.643Z" fill="white"/>
<path d="M80.2033 150.643H77.7118V153.128H80.2033V150.643Z" fill="white"/>
<path d="M84.5932 150.643H82.1017V153.128H84.5932V150.643Z" fill="white"/>
<path d="M88.983 155.495H86.4915V157.98H88.983V155.495Z" fill="white"/>
<path d="M93.3729 155.495H90.8813V157.98H93.3729V155.495Z" fill="white"/>
<path d="M49.3559 155.495H46.8644V157.98H49.3559V155.495Z" fill="white"/>
<path d="M53.7457 155.495H51.2542V157.98H53.7457V155.495Z" fill="white"/>
<path d="M62.5253 155.495H60.0338V157.98H62.5253V155.495Z" fill="white"/>
<path d="M67.0339 155.495H64.5424V157.98H67.0339V155.495Z" fill="white"/>
<path d="M80.2033 155.495H77.7118V157.98H80.2033V155.495Z" fill="white"/>
<path d="M84.5932 155.495H82.1017V157.98H84.5932V155.495Z" fill="white"/>
<path d="M93.3729 160.346H90.8813V162.832H93.3729V160.346Z" fill="white"/>
<path d="M49.3559 160.346H46.8644V162.832H49.3559V160.346Z" fill="white"/>
<path d="M53.7457 160.346H51.2542V162.832H53.7457V160.346Z" fill="white"/>
<path d="M58.1356 160.346H55.644V162.832H58.1356V160.346Z" fill="white"/>
<path d="M62.5253 160.346H60.0338V162.832H62.5253V160.346Z" fill="white"/>
<path d="M67.0339 160.346H64.5424V162.832H67.0339V160.346Z" fill="white"/>
<path d="M71.4237 160.346H68.9321V162.832H71.4237V160.346Z" fill="white"/>
<path d="M80.2033 160.346H77.7118V162.832H80.2033V160.346Z" fill="white"/>
<path d="M84.5932 160.346H82.1017V162.832H84.5932V160.346Z" fill="white"/>
<path d="M88.983 165.08H86.4915V167.565H88.983V165.08Z" fill="white"/>
<path d="M93.3729 165.08H90.8813V167.565H93.3729V165.08Z" fill="white"/>
<path d="M49.3559 165.08H46.8644V167.565H49.3559V165.08Z" fill="white"/>
<path d="M53.7457 165.08H51.2542V167.565H53.7457V165.08Z" fill="white"/>
<path d="M58.1356 165.08H55.644V167.565H58.1356V165.08Z" fill="white"/>
<path d="M62.5253 165.08H60.0338V167.565H62.5253V165.08Z" fill="white"/>
<path d="M67.0339 165.08H64.5424V167.565H67.0339V165.08Z" fill="white"/>
<path d="M71.4237 165.08H68.9321V167.565H71.4237V165.08Z" fill="white"/>
<path d="M75.8135 165.08H73.322V167.565H75.8135V165.08Z" fill="white"/>
<path d="M80.2033 165.08H77.7118V167.565H80.2033V165.08Z" fill="white"/>
<path d="M84.5932 165.08H82.1017V167.565H84.5932V165.08Z" fill="white"/>
<path d="M88.983 173.6H86.4915V176.085H88.983V173.6Z" fill="white"/>
<path d="M93.3729 173.6H90.8813V176.085H93.3729V173.6Z" fill="white"/>
<path d="M49.3559 173.6H46.8644V176.085H49.3559V173.6Z" fill="white"/>
<path d="M53.7457 173.6H51.2542V176.085H53.7457V173.6Z" fill="white"/>
<path d="M58.1356 173.6H55.644V176.085H58.1356V173.6Z" fill="white"/>
<path d="M62.5253 173.6H60.0338V176.085H62.5253V173.6Z" fill="white"/>
<path d="M67.0339 173.6H64.5424V176.085H67.0339V173.6Z" fill="white"/>
<path d="M71.4237 173.6H68.9321V176.085H71.4237V173.6Z" fill="white"/>
<path d="M75.8135 173.6H73.322V176.085H75.8135V173.6Z" fill="white"/>
<path d="M80.2033 173.6H77.7118V176.085H80.2033V173.6Z" fill="white"/>
<path d="M84.5932 173.6H82.1017V176.085H84.5932V173.6Z" fill="white"/>
<path d="M88.983 178.452H86.4915V180.937H88.983V178.452Z" fill="white"/>
<path d="M93.3729 178.452H90.8813V180.937H93.3729V178.452Z" fill="white"/>
<path d="M49.3559 178.452H46.8644V180.937H49.3559V178.452Z" fill="white"/>
<path d="M53.7457 178.452H51.2542V180.937H53.7457V178.452Z" fill="white"/>
<path d="M58.1356 178.452H55.644V180.937H58.1356V178.452Z" fill="white"/>
<path d="M62.5253 178.452H60.0338V180.937H62.5253V178.452Z" fill="white"/>
<path d="M67.0339 178.452H64.5424V180.937H67.0339V178.452Z" fill="white"/>
<path d="M71.4237 178.452H68.9321V180.937H71.4237V178.452Z" fill="white"/>
<path d="M75.8135 178.452H73.322V180.937H75.8135V178.452Z" fill="white"/>
<path d="M84.5932 178.452H82.1017V180.937H84.5932V178.452Z" fill="white"/>
<path d="M88.983 183.186H86.4915V185.671H88.983V183.186Z" fill="white"/>
<path d="M93.3729 183.186H90.8813V185.671H93.3729V183.186Z" fill="white"/>
<path d="M49.3559 183.186H46.8644V185.671H49.3559V183.186Z" fill="white"/>
<path d="M53.7457 183.186H51.2542V185.671H53.7457V183.186Z" fill="white"/>
<path d="M62.5253 183.186H60.0338V185.671H62.5253V183.186Z" fill="white"/>
<path d="M67.0339 183.186H64.5424V185.671H67.0339V183.186Z" fill="white"/>
<path d="M71.4237 183.186H68.9321V185.671H71.4237V183.186Z" fill="white"/>
<path d="M75.8135 183.186H73.322V185.671H75.8135V183.186Z" fill="white"/>
<path d="M80.2033 183.186H77.7118V185.671H80.2033V183.186Z" fill="white"/>
<path d="M84.5932 183.186H82.1017V185.671H84.5932V183.186Z" fill="white"/>
<path d="M88.983 188.037H86.4915V190.522H88.983V188.037Z" fill="white"/>
<path d="M93.3729 188.037H90.8813V190.522H93.3729V188.037Z" fill="white"/>
<path d="M49.3559 188.037H46.8644V190.522H49.3559V188.037Z" fill="white"/>
<path d="M53.7457 188.037H51.2542V190.522H53.7457V188.037Z" fill="white"/>
<path d="M62.5253 188.037H60.0338V190.522H62.5253V188.037Z" fill="white"/>
<path d="M67.0339 188.037H64.5424V190.522H67.0339V188.037Z" fill="white"/>
<path d="M71.4237 188.037H68.9321V190.522H71.4237V188.037Z" fill="white"/>
<path d="M75.8135 188.037H73.322V190.522H75.8135V188.037Z" fill="white"/>
<path d="M80.2033 188.037H77.7118V190.522H80.2033V188.037Z" fill="white"/>
<path d="M84.5932 188.037H82.1017V190.522H84.5932V188.037Z" fill="white"/>
<path d="M252 184.251C251.407 179.044 245.356 180.819 242.983 183.896C239.186 188.629 236.22 194.309 233.61 199.989C238.356 158.571 244.881 163.068 244.407 162.358C243.339 160.583 240.61 159.281 238.593 160.346C235.271 162.122 235.034 167.92 234.322 171.115C232.661 178.689 231.237 186.262 230.288 193.836C229.22 188.511 227.441 183.541 223.525 180.464C218.542 176.677 211.542 177.387 207.034 181.292C206.797 181.292 205.492 182.83 206.203 183.186C206.559 183.659 228.034 176.204 228.153 210.285C228.153 210.876 228.508 211.113 228.864 211.231C228.39 212.415 230.288 212.888 230.763 211.705C231.119 210.758 231.475 209.811 231.949 208.983C232.305 208.865 232.78 208.628 232.78 208.155C232.78 207.8 232.898 207.326 232.898 206.971C246.661 178.689 252.119 184.369 252 184.251Z" fill="#9FB8FC"/>
<path d="M249.39 198.569C243.22 193.599 237.763 196.321 233.491 200.936C237.525 187.564 233.847 170.878 218.898 167.802C217.949 167.565 227.915 173.009 229.22 187.682C229.695 192.534 229.102 197.386 228.271 202.238C227.322 197.031 225.542 191.706 221.39 188.984C216.288 185.671 209.169 190.049 207.271 195.019C207.271 195.138 207.152 195.256 207.271 195.374C207.034 196.203 218.661 185.079 223.881 197.149C225.068 199.871 226.254 202.711 226.966 205.669C226.966 206.025 227.085 206.261 227.085 206.616C226.254 205.433 225.305 204.368 224 203.539C220.797 201.409 217.119 201.764 213.441 202.356C212.61 202.474 224.119 203.303 226.847 212.415C227.085 213.243 228.034 213.243 228.508 212.651C229.102 212.651 229.576 212.296 229.576 211.705C231.593 212.296 233.491 209.93 234.203 208.155C239.424 194.782 249.746 198.806 249.39 198.569Z" fill="#87A9FB"/>
<path d="M210.712 39.5245C210.712 39.5245 213.085 35.7377 219.847 36.2111C224.119 36.5661 227.322 42.3646 227.085 48.2814C226.491 62.3635 230.288 72.6588 235.627 70.8838C240.966 69.1087 237.288 72.0672 232.898 74.7889C227.678 77.984 221.746 75.7356 218.542 72.3038C215.339 68.8721 213.797 45.4414 213.797 45.4414L210.712 39.5245Z" fill="#000038"/>
<path d="M197.78 194.664C197.78 194.664 199.797 195.256 200.034 196.676C200.39 199.989 194.814 205.314 192.678 205.314C190.542 205.314 186.153 205.551 185.797 205.078C185.559 204.604 189.593 201.883 190.305 201.528C191.136 201.173 195.051 195.848 195.051 195.848L197.78 194.664Z" fill="#000038"/>
<path d="M200.034 197.031C200.034 197.031 199.797 203.539 199.559 205.078H198.373C198.373 205.078 198.136 199.279 198.017 198.451C197.78 197.623 200.034 197.031 200.034 197.031Z" fill="#000038"/>
<path d="M230.051 187.327C230.051 187.327 231.831 186.144 233.017 186.972C235.746 188.866 236.102 196.558 234.678 198.096C233.254 199.634 230.525 203.184 230.051 203.066C229.458 202.948 230.169 198.214 230.407 197.268C230.644 196.439 229.22 190.049 229.22 190.049L230.051 187.327Z" fill="#000038"/>
<path d="M233.254 187.209C233.254 187.209 238 191.587 239.068 192.771L238.237 193.717C238.237 193.717 233.729 190.049 233.017 189.694C232.305 189.339 233.254 187.209 233.254 187.209Z" fill="#000038"/>
<path d="M201.102 159.518C201.814 165.672 202.288 174.665 200.864 185.907C199.915 193.126 199.797 196.084 199.797 196.084C199.797 196.084 196.356 199.753 194.339 199.043C192.797 198.451 195.051 195.848 195.051 195.848C195.051 195.848 191.61 156.086 193.746 153.483C196 150.761 199.797 149.223 201.102 159.518Z" fill="#F4D8D5"/>
<path d="M219.966 151.235C223.407 156.441 224.949 164.962 228.627 175.612C231 182.475 233.017 187.091 233.017 187.091C233.017 187.091 233.373 192.297 231.237 192.534C229.102 192.771 228.746 188.156 228.746 188.156C228.746 188.156 209.288 156.915 210.119 153.601C211.068 150.288 214.153 142.478 219.966 151.235Z" fill="#F4D8D5"/>
<path d="M205.729 118.337C205.729 118.337 205.966 121.769 206.322 126.384C206.441 127.567 206.559 128.987 206.559 130.407C206.678 131.354 206.678 132.182 206.797 133.129C207.508 142.478 208.458 153.01 209.051 154.903C209.644 156.678 225.305 184.724 225.305 184.724L232.898 179.99C232.898 179.99 232.78 179.635 232.424 179.044C231.593 177.15 229.814 173.009 227.797 168.393C227.203 166.973 226.61 165.435 226.017 164.015C224 159.163 222.22 154.666 221.746 153.128C220.915 150.169 222.576 131.354 223.288 119.402C223.525 115.378 223.763 112.065 223.644 110.527C223.525 104.136 216.763 98.8113 216.763 98.8113L205.729 118.337Z" fill="#93B1FB"/>
<path d="M191.017 153.72C190.78 160.11 192.797 190.522 192.797 190.522H201.339C201.339 190.522 202.881 164.252 203.119 157.506C203.237 153.365 205.136 136.561 205.966 128.751C206.085 127.922 206.085 127.212 206.203 126.62C206.322 125.319 206.441 124.609 206.441 124.609L214.271 117.509L216.881 99.048L195.525 99.8763C189.593 107.45 191.254 147.329 191.017 153.72Z" fill="#93B1FB"/>
<path d="M200.034 69.1087C197.542 67.452 194.576 68.6354 193.271 71.3571C191.847 74.0789 184.966 91.7111 184.966 92.7761C184.966 93.8411 185.203 98.693 191.136 96.9179C196 91.5927 201.339 76.3273 201.695 74.6706C201.932 73.1322 201.458 70.0554 200.034 69.1087Z" fill="#F4D8D5"/>
<path d="M219.966 100.823C219.966 100.941 224.593 109.225 224.593 109.225C206.441 113.722 190.187 107.687 190.187 107.687C190.898 105.675 195.644 96.9179 195.763 95.3795C196 87.451 191.136 84.0192 191.492 79.5224C191.966 74.7889 196.237 68.5171 196.237 68.5171C196.237 68.5171 213.203 66.742 222.339 71.3571C222.339 71.3571 217.356 87.3326 217.831 94.7878C217.831 95.3795 217.949 95.8529 218.068 96.2079C218.424 97.7463 219.136 99.2846 219.966 100.823Z" fill="white"/>
<path d="M202.407 62.8369L202.051 69.3454C202.051 69.3454 202.644 73.1322 205.017 73.1322C206.915 73.1322 211.661 70.2921 212.61 68.9904L213.085 57.9851L202.407 62.8369Z" fill="#F4D8D5"/>
<path d="M202.169 67.807C202.169 67.807 205.729 68.6354 208.339 66.032C210.949 63.4286 210.356 61.4168 210.356 61.4168L202.288 64.6119L202.169 67.807Z" fill="#DBB5BF"/>
<path d="M219.847 78.339C219.847 78.339 216.407 94.5512 224.712 109.225L219.729 110.172C219.729 110.172 214.983 91.8294 214.508 89.936C213.915 87.2143 212.61 82.7175 212.491 79.049C212.491 77.629 212.847 69.4637 213.915 69.3454C214.864 69.2271 221.034 70.2921 221.034 70.2921L219.847 78.339Z" fill="#D3E1FD"/>
<path d="M218.305 69.2271C215.22 69.1087 213.559 71.3571 213.797 74.4339C214.034 77.5107 217.475 96.2079 218.068 97.1546C218.661 98.1013 223.881 102.953 224.949 97.1546C226.254 90.0544 223.407 74.3156 222.814 72.7772C222.339 71.1205 220.085 69.2271 218.305 69.2271Z" fill="#F4D8D5"/>
<path d="M198.848 159.873C200.627 161.056 199.915 166.145 199.915 168.038L200.153 175.139C200.271 180.227 200.509 185.316 200.627 190.404H201.458C201.458 190.404 203 164.133 203.237 157.388C203.356 153.246 205.254 136.442 206.085 128.632C205.848 128.04 205.61 127.449 205.136 126.975C204.898 126.739 204.661 126.739 204.424 126.857C204.068 126.739 203.593 126.857 203.593 127.33C202.763 138.099 201.814 148.749 198.492 159.163C198.492 159.518 198.61 159.755 198.848 159.873ZM206.797 133.247C206.797 132.301 206.797 131.354 206.559 130.526C206.678 131.354 206.678 132.301 206.797 133.247Z" fill="#6A85FA"/>
<path d="M195.525 108.397C195.525 108.397 215.102 94.6695 217.475 94.0778C219.847 93.4861 225.898 96.7996 224.356 99.1663C222.339 102.243 197.661 111.592 197.661 111.592L195.525 108.397Z" fill="#F4D8D5"/>
<path d="M163.136 105.912C163.136 105.912 182.712 92.1844 185.085 91.5927C187.458 91.0011 193.509 94.3145 191.966 96.6812C189.949 99.758 165.271 109.107 165.271 109.107L163.136 105.912Z" fill="#F4D8D5"/>
<path d="M191.136 95.6162L168.237 96.7996C167.407 96.7996 166.695 96.4446 166.339 95.7345L163.136 90.1727C162.78 89.4627 162.068 89.1077 161.237 89.1077L148.898 89.936C147.831 89.936 147 90.8827 147 92.0661L147.475 99.8763V99.9947L148.78 124.845C148.78 125.91 149.729 126.739 150.915 126.739L192.797 124.49C193.864 124.49 194.695 123.544 194.695 122.36L193.39 97.5096C193.153 96.4446 192.203 95.6162 191.136 95.6162Z" fill="#9D0089"/>
<path d="M193.746 95.4979L170.847 96.6812C170.017 96.6812 169.305 96.3262 168.949 95.6162L165.746 90.0544C165.39 89.3443 164.678 88.9893 163.847 88.9893L151.39 89.6994C150.322 89.6994 149.491 90.646 149.491 91.8294L149.966 99.6396V99.758L151.271 124.609C151.271 125.674 152.22 126.502 153.407 126.502L195.288 124.254C196.356 124.254 197.186 123.307 197.186 122.124L195.881 97.2729C195.763 96.3262 194.813 95.4979 193.746 95.4979Z" fill="url(#paint0_linear)"/>
<path d="M193.034 120.23L155.186 122.242C154.356 122.242 153.763 121.65 153.644 120.94L152.576 101.06C152.576 100.231 153.17 99.6396 153.881 99.5213L191.729 97.5096C192.559 97.5096 193.153 98.1013 193.271 98.8113L194.339 118.692C194.458 119.52 193.864 120.23 193.034 120.23Z" fill="#EAF1EF"/>
<path d="M193.39 99.9947C193.39 98.9296 192.441 98.1013 191.254 98.1013L178.797 98.8113C178.085 98.8113 177.373 99.2846 177.017 99.9947L174.526 105.911C174.17 106.622 173.576 107.095 172.746 107.095L149.848 108.278C148.78 108.278 147.949 109.225 147.949 110.408L149.254 135.259C149.254 136.324 150.203 137.152 151.39 137.152L193.271 134.904C194.339 134.904 195.17 133.957 195.17 132.774L193.864 107.923V107.805L193.39 99.9947Z" fill="#9D0089"/>
<path d="M196 99.8763C196 98.8113 195.051 97.9829 193.864 97.9829L181.407 98.693C180.695 98.693 179.983 99.1663 179.627 99.8763L177.136 105.793C176.78 106.503 176.186 106.977 175.356 106.977L152.458 108.16C151.39 108.16 150.559 109.107 150.559 110.29L151.864 135.141C151.864 136.206 152.814 137.034 154 137.034L195.881 134.786C196.949 134.786 197.78 133.839 197.78 132.656L196.475 107.805V107.687L196 99.8763Z" fill="url(#paint1_linear)"/>
<path d="M186.509 113.84C185.559 113.958 184.966 113.367 185.441 112.893C184.729 112.657 184.966 112.065 185.441 111.592C185.441 111.592 184.966 110.763 186.034 110.29C186.983 109.935 187.932 109.817 188.763 109.817C190.186 109.817 191.492 109.817 192.915 109.343C193.746 108.278 190.661 108.752 190.424 108.278C190.068 107.687 190.898 107.213 191.61 106.977C193.746 106.267 196.237 107.095 197.78 108.16C199.322 109.225 198.373 111.355 197.78 111.71C196.831 113.248 191.492 115.142 188.407 115.023C186.864 115.023 185.559 114.787 186.509 113.84Z" fill="#F4D8D5"/>
<path d="M217.593 154.075C221.271 157.506 222.932 162.358 225.424 166.618C225.661 167.092 226.017 167.565 226.254 168.038C228.034 171.825 230.051 175.612 232.424 179.044C231.593 177.15 229.814 173.009 227.797 168.393C227.559 168.038 226.017 164.133 226.017 164.015C224 159.163 222.22 154.666 221.746 153.128C220.915 150.169 222.576 131.354 223.288 119.402C222.932 119.402 222.576 119.52 222.576 119.994C222.339 125.555 222.102 131.236 221.864 136.797C221.746 139.519 221.271 142.241 220.559 144.963C219.966 146.974 219.847 152.063 217.712 153.246C217.356 153.365 217.237 153.838 217.593 154.075Z" fill="#6A85FA"/>
<path d="M193.627 46.3881C193.627 46.3881 195.051 56.6834 197.068 57.3934C199.085 58.1034 198.966 46.2697 197.898 45.7964C197.068 45.323 194.22 45.0863 193.627 46.3881Z" fill="#000038"/>
<path d="M204.424 65.9136H204.068C199.322 65.7953 196.949 61.6535 196.83 56.565C196.712 53.2516 195.881 43.3113 195.881 43.3113C195.881 42.7196 196.356 42.1279 196.949 42.1279L212.492 42.4829C213.085 42.4829 213.559 43.0746 213.559 43.6663L213.203 56.8017C213.203 62.0085 209.169 66.032 204.424 65.9136Z" fill="#F4D8D5"/>
<path d="M196.237 46.7431L196.475 50.1748C196.475 50.1748 207.509 50.7665 210.712 49.1098C213.797 47.4531 211.898 44.968 211.898 44.968L200.271 44.1396L196.237 46.7431Z" fill="#DBB5BF"/>
<path d="M198.61 48.7548C198.017 48.7548 197.424 48.6364 196.949 48.5181C197.068 47.9264 197.542 45.678 197.186 46.388C196.949 47.0981 196.593 47.6898 196.356 48.3998C195.288 48.1631 193.864 47.8081 193.034 47.4531C192.441 45.4413 194.339 41.0629 196.475 39.6428C199.678 37.5128 209.051 33.726 213.203 39.7612C213.203 39.7612 215.576 41.2996 216.525 43.548C217.475 45.7964 219.254 56.92 213.559 57.63C213.678 56.21 211.542 53.2516 210.831 51.5949C210.119 49.9381 210.831 46.6247 210.831 46.6247C210.831 46.6247 209.051 48.2814 206.203 48.6364C206.085 47.8081 205.966 46.8614 205.847 46.033C205.729 45.2047 204.78 47.8081 204.898 48.7548C203.356 48.8731 201.814 48.8731 200.153 48.8731C200.508 47.6897 200.746 46.6247 201.102 45.4414C201.102 44.7313 199.203 47.4531 198.61 48.7548Z" fill="#1A1A43"/>
<path d="M210.831 53.1333C210.831 53.1333 211.186 50.5298 213.322 51.1215C216.407 51.9499 215.695 57.3934 211.898 57.0384C210.475 56.92 210 54.1983 210.831 53.1333Z" fill="#F4D8D5"/>
<path d="M211.424 53.3699C211.305 52.8966 211.661 51.8315 212.729 51.8315C213.797 51.9499 214.509 53.0149 214.39 53.9616C214.39 54.9083 213.915 55.9733 213.322 55.855C212.848 55.7367 213.559 54.6716 213.441 54.0799C213.322 53.4883 212.61 53.0149 212.373 53.3699C212.017 53.8433 211.542 53.8433 211.424 53.3699Z" fill="#DBB5BF"/>
<path d="M212.729 56.3284C212.729 56.3284 210.83 57.1567 212.136 59.2868C213.441 61.4168 215.339 59.9968 215.576 58.8134C215.695 58.2217 215.339 56.6834 214.271 56.3284L213.797 56.6834C213.797 56.6834 215.102 57.7484 214.39 58.8134C213.678 59.8785 212.966 59.0501 212.729 58.6951C212.254 57.9851 212.847 56.92 212.847 56.92L212.729 56.3284Z" fill="#5B85F7"/>
<path d="M199.678 57.275C199.678 57.275 201.458 57.63 202.169 57.3934C202.881 57.275 202.17 58.4584 201.695 58.4584C201.102 58.6951 199.678 57.275 199.678 57.275Z" fill="#DBB5BF"/>
<path d="M46.6271 56.565C44.4916 54.79 41.2882 55.145 39.6271 57.2751C37.8475 59.4051 38.2034 62.6002 40.339 64.2569C42.4746 66.032 45.678 65.677 47.339 63.5469C49 61.4169 48.7627 58.3401 46.6271 56.565Z" fill="url(#paint2_radial)"/>
<mask id="mask0" mask-type="alpha" maskUnits="userSpaceOnUse" x="35" y="52" width="17" height="17">
<path d="M43.4237 68.5171C41.644 68.5171 39.8644 67.9254 38.322 66.742C34.8813 63.9019 34.2881 58.8134 37.1356 55.3817C38.5593 53.7249 40.4576 52.6599 42.5932 52.4232C44.7288 52.1866 46.8644 52.7783 48.5254 54.1983C51.9661 57.0384 52.5593 62.1269 49.7119 65.5586C48.0508 67.5704 45.7966 68.5171 43.4237 68.5171ZM43.4237 53.0149C43.1864 53.0149 42.9491 53.0149 42.7118 53.0149C40.6949 53.2516 38.9152 54.1983 37.7288 55.7367C35.1186 58.9318 35.5932 63.5469 38.7966 66.1503C42 68.7537 46.6271 68.2804 49.2373 65.0853C51.8474 61.8902 51.3729 57.2751 48.1695 54.6716C46.7457 53.6066 45.0847 53.0149 43.4237 53.0149Z" fill="url(#paint3_linear)"/>
</mask>
<g mask="url(#mask0)">
<path d="M43.4237 68.5171C41.644 68.5171 39.8644 67.9254 38.322 66.742C34.8813 63.9019 34.2881 58.8134 37.1356 55.3817C38.5593 53.7249 40.4576 52.6599 42.5932 52.4232C44.7288 52.1866 46.8644 52.7783 48.5254 54.1983C51.9661 57.0384 52.5593 62.1269 49.7119 65.5586C48.0508 67.5704 45.7966 68.5171 43.4237 68.5171ZM43.4237 53.0149C43.1864 53.0149 42.9491 53.0149 42.7118 53.0149C40.6949 53.2516 38.9152 54.1983 37.7288 55.7367C35.1186 58.9318 35.5932 63.5469 38.7966 66.1503C42 68.7537 46.6271 68.2804 49.2373 65.0853C51.8474 61.8902 51.3729 57.2751 48.1695 54.6716C46.7457 53.6066 45.0847 53.0149 43.4237 53.0149Z" fill="url(#paint4_linear)"/>
</g>
<mask id="mask1" mask-type="alpha" maskUnits="userSpaceOnUse" x="45" y="44" width="32" height="10">
<path d="M45.9152 53.3699L45.322 53.0149C45.5593 52.5416 51.3729 42.7196 76.6441 44.968L76.5254 45.678C51.7288 43.548 45.9152 53.2516 45.9152 53.3699Z" fill="url(#paint5_linear)"/>
</mask>
<g mask="url(#mask1)">
<path d="M45.9152 53.3699L45.322 53.0149C45.5593 52.5416 51.3729 42.7196 76.6441 44.968L76.5254 45.678C51.7288 43.548 45.9152 53.2516 45.9152 53.3699Z" fill="url(#paint6_linear)"/>
</g>
<mask id="mask2" mask-type="alpha" maskUnits="userSpaceOnUse" x="131" y="45" width="38" height="34">
<path d="M131.102 78.694V77.984C131.339 77.984 151.034 77.0373 164.085 67.6887C167.525 65.2036 168.712 62.3635 167.644 59.1685C165.271 52.3049 152.22 45.4414 142.136 45.7964V45.0864C151.508 44.8497 165.627 51.2399 168.237 58.9318C169.068 61.2985 169.068 64.8486 164.441 68.2804C151.271 77.7473 131.339 78.694 131.102 78.694Z" fill="url(#paint7_linear)"/>
</mask>
<g mask="url(#mask2)">
<path d="M131.102 78.694V77.984C131.339 77.984 151.034 77.0373 164.085 67.6887C167.525 65.2036 168.712 62.3635 167.644 59.1685C165.271 52.3049 152.22 45.4414 142.136 45.7964V45.0864C151.508 44.8497 165.627 51.2399 168.237 58.9318C169.068 61.2985 169.068 64.8486 164.441 68.2804C151.271 77.7473 131.339 78.694 131.102 78.694Z" fill="url(#paint8_linear)"/>
<path d="M140.949 29.9392C140.712 23.0757 135.017 17.7505 128.136 17.7505C127.305 17.7505 126.593 17.8689 125.763 17.9872C123.864 7.6919 114.966 0 104.17 0C92.6611 0 83.1695 8.87527 82.2204 20.1173C80.9153 19.7623 79.6102 19.6439 78.1865 19.6439C68.339 19.6439 60.2712 27.6908 60.2712 37.5128C60.2712 47.3348 68.339 55.3817 78.1865 55.3817H141.068C148.186 55.3817 153.881 49.7015 153.881 42.6013C153.763 35.6194 148.068 29.9392 140.949 29.9392Z" fill="#9FB1FB"/>
<path d="M137.627 32.8977C137.39 26.2708 131.932 21.064 125.17 21.064C124.339 21.064 123.627 21.1823 122.915 21.3006C121.017 11.4787 112.356 4.02345 102.034 4.02345C90.8814 4.02345 81.7458 12.5437 80.7966 23.549C79.4915 23.3124 78.1864 23.0757 76.8814 23.0757C67.2712 23.0757 59.5593 30.8859 59.5593 40.3529C59.5593 49.9382 67.3898 57.6301 76.8814 57.6301H137.627C144.508 57.6301 150.085 52.0682 150.085 45.2047C149.966 38.4595 144.39 32.8977 137.627 32.8977Z" fill="#DBE6FD"/>
<path d="M136.085 78.339C136.085 75.6173 133.831 73.3689 131.102 73.3689C128.373 73.3689 126.119 75.6173 126.119 78.339C126.119 81.0608 128.373 83.3092 131.102 83.3092C133.831 83.3092 136.085 81.0608 136.085 78.339Z" fill="url(#paint9_radial)"/>
<mask id="mask3" mask-type="alpha" maskUnits="userSpaceOnUse" x="123" y="70" width="17" height="17">
<path d="M131.102 86.3859C126.593 86.3859 123.034 82.7175 123.034 78.339C123.034 73.8422 126.712 70.2921 131.102 70.2921C135.61 70.2921 139.17 73.9606 139.17 78.339C139.17 82.8358 135.492 86.3859 131.102 86.3859ZM131.102 70.8838C127.068 70.8838 123.627 74.1972 123.627 78.339C123.627 82.3625 126.949 85.6759 131.102 85.6759C135.136 85.6759 138.458 82.3625 138.458 78.339C138.458 74.1972 135.136 70.8838 131.102 70.8838Z" fill="url(#paint10_linear)"/>
</mask>
<g mask="url(#mask3)">
<path d="M131.102 86.3859C126.593 86.3859 123.034 82.7175 123.034 78.339C123.034 73.8422 126.712 70.2921 131.102 70.2921C135.61 70.2921 139.17 73.9606 139.17 78.339C139.17 82.8358 135.492 86.3859 131.102 86.3859ZM131.102 70.8838C127.068 70.8838 123.627 74.1972 123.627 78.339C123.627 82.3625 126.949 85.6759 131.102 85.6759C135.136 85.6759 138.458 82.3625 138.458 78.339C138.458 74.1972 135.136 70.8838 131.102 70.8838Z" fill="url(#paint11_linear)"/>
</g>
</g>
</g>
<defs>
<linearGradient id="paint0_linear" x1="150.485" y1="108.267" x2="196.286" y2="105.807" gradientUnits="userSpaceOnUse">
<stop stop-color="#AE2BB6"/>
<stop offset="1" stop-color="#DB006F"/>
</linearGradient>
<linearGradient id="paint1_linear" x1="151.046" y1="118.694" x2="196.846" y2="116.234" gradientUnits="userSpaceOnUse">
<stop stop-color="#AE2BB6"/>
<stop offset="1" stop-color="#DB006F"/>
</linearGradient>
<radialGradient id="paint2_radial" cx="0" cy="0" r="1" gradientUnits="userSpaceOnUse" gradientTransform="translate(43.4113 60.4422) rotate(-50.7144) scale(5.0017 5.00429)">
<stop stop-color="#F1F1F1"/>
<stop offset="0.1684" stop-color="#EDEEF1"/>
<stop offset="0.3336" stop-color="#E1E5F2"/>
<stop offset="0.4976" stop-color="#CED6F3"/>
<stop offset="0.6609" stop-color="#B2C1F5"/>
<stop offset="0.8237" stop-color="#8EA5F8"/>
<stop offset="0.9841" stop-color="#6385FB"/>
<stop offset="1" stop-color="#5E81FB"/>
</radialGradient>
<linearGradient id="paint3_linear" x1="38.2846" y1="66.7082" x2="48.5059" y2="54.1489" gradientUnits="userSpaceOnUse">
<stop/>
<stop offset="1" stop-color="white"/>
</linearGradient>
<linearGradient id="paint4_linear" x1="38.2846" y1="66.7082" x2="48.5059" y2="54.1489" gradientUnits="userSpaceOnUse">
<stop stop-color="#F1F1F1"/>
<stop offset="1" stop-color="#5E81FB"/>
</linearGradient>
<linearGradient id="paint5_linear" x1="45.2577" y1="49.0419" x2="76.5987" y2="49.0419" gradientUnits="userSpaceOnUse">
<stop stop-color="white"/>
<stop offset="1"/>
</linearGradient>
<linearGradient id="paint6_linear" x1="45.2577" y1="49.0419" x2="76.5987" y2="49.0419" gradientUnits="userSpaceOnUse">
<stop stop-color="#5E81FB"/>
<stop offset="1" stop-color="#F1F1F1"/>
</linearGradient>
<linearGradient id="paint7_linear" x1="131.064" y1="61.8805" x2="168.677" y2="61.8805" gradientUnits="userSpaceOnUse">
<stop/>
<stop offset="1" stop-color="white"/>
</linearGradient>
<linearGradient id="paint8_linear" x1="131.064" y1="61.8805" x2="168.677" y2="61.8805" gradientUnits="userSpaceOnUse">
<stop stop-color="#F1F1F1"/>
<stop offset="1" stop-color="#5E81FB"/>
</linearGradient>
<radialGradient id="paint9_radial" cx="0" cy="0" r="1" gradientUnits="userSpaceOnUse" gradientTransform="translate(131.078 78.3178) scale(5.00938 4.99642)">
<stop stop-color="#F1F1F1"/>
<stop offset="0.1684" stop-color="#EDEEF1"/>
<stop offset="0.3336" stop-color="#E1E5F2"/>
<stop offset="0.4976" stop-color="#CED6F3"/>
<stop offset="0.6609" stop-color="#B2C1F5"/>
<stop offset="0.8237" stop-color="#8EA5F8"/>
<stop offset="0.9841" stop-color="#6385FB"/>
<stop offset="1" stop-color="#5E81FB"/>
</radialGradient>
<linearGradient id="paint10_linear" x1="122.968" y1="78.3178" x2="139.188" y2="78.3178" gradientUnits="userSpaceOnUse">
<stop/>
<stop offset="1" stop-color="white"/>
</linearGradient>
<linearGradient id="paint11_linear" x1="122.968" y1="78.3178" x2="139.188" y2="78.3178" gradientUnits="userSpaceOnUse">
<stop stop-color="#F1F1F1"/>
<stop offset="1" stop-color="#5E81FB"/>
</linearGradient>
<clipPath id="clip0">
<rect width="252" height="222" fill="white"/>
</clipPath>
</defs>
</svg>
