<svg width="250" height="197" viewBox="0 0 250 197" fill="none" xmlns="http://www.w3.org/2000/svg">
<g clip-path="url(#clip0)">
<path d="M68.9611 131.559H89.6104C90 131.559 90.3896 131.689 90.6494 132.079L92.5974 134.286L91.039 135.715V176.365C91.039 177.144 90.3896 177.793 89.6104 177.793L68.9611 177.923C68.1818 177.923 67.5325 177.274 67.5325 176.494V133.247C67.5325 132.208 68.1818 131.559 68.9611 131.559Z" fill="#3D51C6"/>
<path d="M70 178.313L68.3117 177.533L68.5714 176.494L69.4805 176.105L70.3896 176.494L70 178.313Z" fill="#3D51C6"/>
<path d="M70.9091 178.702H91.5584C92.3377 178.702 92.987 178.053 92.987 177.274V135.195C92.987 134.416 92.3377 133.767 91.5584 133.767H70.9091C70.1299 133.767 69.4805 134.416 69.4805 135.195V177.274C69.4805 178.053 70.1299 178.702 70.9091 178.702Z" fill="#6A85FA"/>
<path d="M24.9351 87.5329H134.286C135.714 87.5329 137.143 88.0524 138.052 89.0913L142.208 92.5978L139.87 94.0264V152.728C139.87 155.715 137.403 158.183 134.416 158.183H27.9221V158.312L24.5454 159.871L21.2987 156.884C20.1299 155.845 19.3506 154.416 19.3506 152.728V92.9875C19.3506 90.0004 21.8182 87.5329 24.9351 87.5329Z" fill="#3D51C6"/>
<path d="M28.8312 161.689H138.182C141.169 161.689 143.636 159.222 143.636 156.235V96.494C143.636 93.5069 141.169 91.0394 138.182 91.0394H28.8312C25.8441 91.0394 23.3766 93.5069 23.3766 96.494V156.105C23.2467 159.222 25.7143 161.689 28.8312 161.689Z" fill="#6A85FA"/>
<path d="M32.2078 158.183H134.935C137.662 158.183 140 155.975 140 153.118V99.6109C140 96.8836 137.792 94.5459 134.935 94.5459H32.2078C29.4805 94.5459 27.1428 96.7537 27.1428 99.6109V153.247C27.1428 155.975 29.3506 158.183 32.2078 158.183Z" fill="#DBE6FD"/>
<path d="M51.8182 182.339H107.403C108.182 182.339 108.831 181.689 108.831 180.91V178.053C108.831 177.274 108.182 176.624 107.403 176.624H51.8182C51.039 176.624 50.3896 177.274 50.3896 178.053V180.91C50.3896 181.689 51.039 182.339 51.8182 182.339Z" fill="#3D51C6"/>
<path d="M54.2857 182.339H109.87C110.649 182.339 111.299 181.689 111.299 180.91V178.053C111.299 177.274 110.649 176.624 109.87 176.624H54.2857C53.5065 176.624 52.8571 177.274 52.8571 178.053V180.91C52.8571 181.689 53.5065 182.339 54.2857 182.339Z" fill="#4C67DD"/>
<path d="M93.1169 101.949H134.416V110.91H93.1169V101.949Z" fill="#9FB8FC"/>
<path d="M69.7402 101.949H89.0909V110.91H69.7402V101.949Z" fill="white"/>
<path d="M34.6753 101.949H65.3247V110.91H34.6753V101.949Z" fill="white"/>
<path d="M120.26 122.338H134.416V131.299H120.26V122.338Z" fill="#9FB8FC"/>
<path d="M69.7402 122.338H113.766V131.299H69.7402V122.338Z" fill="#9FB8FC"/>
<path d="M34.6753 122.338H65.3247V131.299H34.6753V122.338Z" fill="white"/>
<path d="M89.0909 141.299H134.416V150.26H89.0909V141.299Z" fill="#9FB8FC"/>
<path d="M57.2727 141.299H83.5065V150.26H57.2727V141.299Z" fill="white"/>
<path d="M34.5455 141.299H49.8701V150.26H34.5455V141.299Z" fill="white"/>
<path d="M133.377 136.494H212.338V162.468H133.377V136.494Z" fill="#3349B2"/>
<path d="M223.535 143.464H213.016V122.425H223.535V143.464Z" fill="#3D51C6"/>
<path d="M133.256 143.464H122.736V122.425H133.256V143.464Z" fill="#3349B2"/>
<path d="M129.87 147.923H216.494C217.533 147.923 218.312 147.144 218.312 146.105V119.871C218.312 118.832 217.533 118.053 216.494 118.053H129.87C128.831 118.053 128.052 118.832 128.052 119.871V146.234C128.052 147.144 128.831 147.923 129.87 147.923Z" fill="#4C67DD"/>
<path d="M207.273 125.585H210V128.312H207.273V125.585Z" fill="#3D51C6"/>
<path d="M199.74 125.585H202.468V128.312H199.74V125.585Z" fill="#3D51C6"/>
<path d="M192.078 125.585H194.805V128.312H192.078V125.585Z" fill="#3D51C6"/>
<path d="M184.416 125.585H187.143V128.312H184.416V125.585Z" fill="#3D51C6"/>
<path d="M176.883 125.585H179.61V128.312H176.883V125.585Z" fill="#3D51C6"/>
<path d="M203.117 131.949H205.844V134.676H203.117V131.949Z" fill="#3D51C6"/>
<path d="M195.584 131.949H198.312V134.676H195.584V131.949Z" fill="#3D51C6"/>
<path d="M187.922 131.949H190.649V134.676H187.922V131.949Z" fill="#3D51C6"/>
<path d="M180.39 131.949H183.117V134.676H180.39V131.949Z" fill="#3D51C6"/>
<path d="M172.727 131.949H175.455V134.676H172.727V131.949Z" fill="#3D51C6"/>
<path d="M207.273 138.312H210V141.04H207.273V138.312Z" fill="#3D51C6"/>
<path d="M199.74 138.312H202.468V141.04H199.74V138.312Z" fill="#3D51C6"/>
<path d="M192.078 138.312H194.805V141.04H192.078V138.312Z" fill="#3D51C6"/>
<path d="M184.416 138.312H187.143V141.04H184.416V138.312Z" fill="#3D51C6"/>
<path d="M176.883 138.312H179.61V141.04H176.883V138.312Z" fill="#3D51C6"/>
<path d="M148.571 128.832H166.883V137.793H148.571V128.832Z" fill="#3D51C6"/>
<path d="M136.364 132.988C136.364 131.04 138.052 129.351 140 129.351C141.948 129.351 143.636 131.04 143.636 132.988C143.636 134.936 141.948 136.624 140 136.624C137.922 136.624 136.364 134.936 136.364 132.988Z" fill="#3D51C6"/>
<path d="M223.535 177.814H213.016V156.775H223.535V177.814Z" fill="#3D51C6"/>
<path d="M133.256 177.814H122.736V156.775H133.256V177.814Z" fill="#3349B2"/>
<path d="M129.87 182.339H216.494C217.533 182.339 218.312 181.559 218.312 180.52V154.286C218.312 153.247 217.533 152.468 216.494 152.468H129.87C128.831 152.468 128.052 153.247 128.052 154.286V180.52C128.052 181.559 128.831 182.339 129.87 182.339Z" fill="#4C67DD"/>
<path d="M207.273 159.871H210V162.598H207.273V159.871Z" fill="#3D51C6"/>
<path d="M199.74 159.871H202.468V162.598H199.74V159.871Z" fill="#3D51C6"/>
<path d="M192.078 159.871H194.805V162.598H192.078V159.871Z" fill="#3D51C6"/>
<path d="M184.416 159.871H187.143V162.598H184.416V159.871Z" fill="#3D51C6"/>
<path d="M176.883 159.871H179.61V162.598H176.883V159.871Z" fill="#3D51C6"/>
<path d="M203.117 166.364H205.844V169.092H203.117V166.364Z" fill="#3D51C6"/>
<path d="M195.584 166.364H198.312V169.092H195.584V166.364Z" fill="#3D51C6"/>
<path d="M187.922 166.364H190.649V169.092H187.922V166.364Z" fill="#3D51C6"/>
<path d="M180.39 166.364H183.117V169.092H180.39V166.364Z" fill="#3D51C6"/>
<path d="M172.727 166.364H175.455V169.092H172.727V166.364Z" fill="#3D51C6"/>
<path d="M207.273 172.728H210V175.455H207.273V172.728Z" fill="#3D51C6"/>
<path d="M199.74 172.728H202.468V175.455H199.74V172.728Z" fill="#3D51C6"/>
<path d="M192.078 172.728H194.805V175.455H192.078V172.728Z" fill="#3D51C6"/>
<path d="M184.416 172.728H187.143V175.455H184.416V172.728Z" fill="#3D51C6"/>
<path d="M176.883 172.728H179.61V175.455H176.883V172.728Z" fill="#3D51C6"/>
<path d="M148.571 163.248H166.883V172.209H148.571V163.248Z" fill="#3D51C6"/>
<path d="M136.364 167.403C136.364 165.455 138.052 163.767 140 163.767C141.948 163.767 143.636 165.455 143.636 167.403C143.636 169.351 141.948 171.04 140 171.04C137.922 171.04 136.364 169.351 136.364 167.403Z" fill="#3D51C6"/>
<path d="M138.442 136.494H217.403V162.468H138.442V136.494Z" fill="#3D51C6"/>
<path d="M228.696 143.464H218.177V122.425H228.696V143.464Z" fill="#3D51C6"/>
<path d="M138.417 143.464H127.897V122.425H138.417V143.464Z" fill="#3D51C6"/>
<path d="M134.935 147.923H221.559C222.597 147.923 223.377 147.144 223.377 146.105V119.871C223.377 118.832 222.597 118.053 221.559 118.053H134.935C133.896 118.053 133.117 118.832 133.117 119.871V146.234C133.117 147.144 134.026 147.923 134.935 147.923Z" fill="#5D73ED"/>
<path d="M137.533 145.715H219.091C220 145.715 220.779 144.936 220.779 144.027V121.819C220.779 120.91 220 120.13 219.091 120.13H137.533C136.623 120.13 135.844 120.91 135.844 121.819V144.157C135.844 145.066 136.623 145.715 137.533 145.715Z" fill="#D3E1FD"/>
<path d="M212.468 125.585H215.195V128.312H212.468V125.585Z" fill="#3D51C6"/>
<path d="M204.805 125.585H207.532V128.312H204.805V125.585Z" fill="#3D51C6"/>
<path d="M197.143 125.585H199.87V128.312H197.143V125.585Z" fill="#3D51C6"/>
<path d="M189.61 125.585H192.338V128.312H189.61V125.585Z" fill="#3D51C6"/>
<path d="M181.948 125.585H184.675V128.312H181.948V125.585Z" fill="#3D51C6"/>
<path d="M208.312 131.949H211.039V134.676H208.312V131.949Z" fill="#3D51C6"/>
<path d="M200.649 131.949H203.377V134.676H200.649V131.949Z" fill="#3D51C6"/>
<path d="M193.117 131.949H195.844V134.676H193.117V131.949Z" fill="#3D51C6"/>
<path d="M185.455 131.949H188.182V134.676H185.455V131.949Z" fill="#3D51C6"/>
<path d="M177.922 131.949H180.649V134.676H177.922V131.949Z" fill="#3D51C6"/>
<path d="M212.468 138.312H215.195V141.04H212.468V138.312Z" fill="#3D51C6"/>
<path d="M204.805 138.312H207.532V141.04H204.805V138.312Z" fill="#3D51C6"/>
<path d="M197.143 138.312H199.87V141.04H197.143V138.312Z" fill="#3D51C6"/>
<path d="M189.61 138.312H192.338V141.04H189.61V138.312Z" fill="#3D51C6"/>
<path d="M181.948 138.312H184.675V141.04H181.948V138.312Z" fill="#3D51C6"/>
<path d="M153.636 128.832H171.948V137.793H153.636V128.832Z" fill="url(#paint0_linear)"/>
<path d="M141.429 132.988C141.429 131.04 143.117 129.351 145.065 129.351C147.013 129.351 148.701 131.04 148.701 132.988C148.701 134.936 147.013 136.624 145.065 136.624C143.117 136.624 141.429 134.936 141.429 132.988Z" fill="#3D51C6"/>
<path d="M228.696 177.814H218.177V156.775H228.696V177.814Z" fill="#3D51C6"/>
<path d="M138.417 177.814H127.897V156.775H138.417V177.814Z" fill="#3D51C6"/>
<path d="M134.935 182.339H221.559C222.597 182.339 223.377 181.559 223.377 180.52V154.286C223.377 153.247 222.597 152.468 221.559 152.468H134.935C133.896 152.468 133.117 153.247 133.117 154.286V180.52C133.117 181.559 134.026 182.339 134.935 182.339Z" fill="#5D73ED"/>
<path d="M137.533 180.131H219.091C220 180.131 220.779 179.352 220.779 178.442V156.105C220.779 155.196 220 154.416 219.091 154.416H137.533C136.623 154.416 135.844 155.196 135.844 156.105V178.442C135.844 179.481 136.623 180.131 137.533 180.131Z" fill="#D3E1FD"/>
<path d="M212.468 159.871H215.195V162.598H212.468V159.871Z" fill="#3D51C6"/>
<path d="M204.805 159.871H207.532V162.598H204.805V159.871Z" fill="#3D51C6"/>
<path d="M197.143 159.871H199.87V162.598H197.143V159.871Z" fill="#3D51C6"/>
<path d="M189.61 159.871H192.338V162.598H189.61V159.871Z" fill="#3D51C6"/>
<path d="M181.948 159.871H184.675V162.598H181.948V159.871Z" fill="#3D51C6"/>
<path d="M208.312 166.364H211.039V169.092H208.312V166.364Z" fill="#3D51C6"/>
<path d="M200.649 166.364H203.377V169.092H200.649V166.364Z" fill="#3D51C6"/>
<path d="M193.117 166.364H195.844V169.092H193.117V166.364Z" fill="#3D51C6"/>
<path d="M185.455 166.364H188.182V169.092H185.455V166.364Z" fill="#3D51C6"/>
<path d="M177.922 166.364H180.649V169.092H177.922V166.364Z" fill="#3D51C6"/>
<path d="M212.468 172.728H215.195V175.455H212.468V172.728Z" fill="#3D51C6"/>
<path d="M204.805 172.728H207.532V175.455H204.805V172.728Z" fill="#3D51C6"/>
<path d="M197.143 172.728H199.87V175.455H197.143V172.728Z" fill="#3D51C6"/>
<path d="M189.61 172.728H192.338V175.455H189.61V172.728Z" fill="#3D51C6"/>
<path d="M181.948 172.728H184.675V175.455H181.948V172.728Z" fill="#3D51C6"/>
<path d="M153.636 163.248H171.948V172.209H153.636V163.248Z" fill="url(#paint1_linear)"/>
<path d="M141.429 167.403C141.429 165.455 143.117 163.767 145.065 163.767C147.013 163.767 148.701 165.455 148.701 167.403C148.701 169.351 147.013 171.04 145.065 171.04C143.117 171.04 141.429 169.351 141.429 167.403Z" fill="#3D51C6"/>
<path d="M96.2337 55.3249C96.7532 44.5457 105.584 35.8443 116.493 35.8443C117.792 35.8443 118.961 35.9742 120.26 36.2339C123.377 20.0001 137.532 7.79225 154.675 7.79225C172.987 7.79225 187.922 21.8183 189.48 39.7405C191.558 39.221 193.766 38.9612 195.974 38.9612C211.688 38.9612 224.416 51.6886 224.416 67.4029C224.416 83.1173 211.688 95.8446 195.974 95.8446H96.3636C85.1947 95.8446 76.1038 86.7537 76.1038 75.5848C76.1038 64.4159 85.0649 55.3249 96.2337 55.3249Z" fill="#9FB1FB"/>
<path d="M102.188 60.1487L102.17 60.6302H101.688C91.051 60.6302 82.448 69.1119 82.448 79.7406C82.448 90.2459 90.9276 98.8511 101.558 98.8511H197.922C212.841 98.8511 224.954 86.7373 224.954 71.8185C224.954 56.8998 212.841 44.7859 197.922 44.7859C195.754 44.7859 193.719 45.041 191.817 45.5483L191.239 45.7024L191.19 45.1064C189.783 28.091 175.452 14.6559 158.052 14.6559C141.806 14.6559 128.37 26.2965 125.426 41.7819L125.33 42.2885L124.827 42.1766C123.696 41.9254 122.434 41.7989 121.299 41.7989C111.046 41.7989 102.567 49.9003 102.188 60.1487Z" fill="white" stroke="#D9F1FE"/>
<path d="M226.753 162.858C227.013 161.949 226.623 160.39 226.494 159.481C225.714 152.988 224.545 144.157 232.078 141.04C232.987 140.65 234.416 140.78 234.935 141.819C236.364 144.936 237.143 148.183 237.273 151.559C237.273 152.338 237.403 153.507 237.143 154.157C237.143 154.416 237.143 154.546 237.013 154.806C237.662 154.416 238.312 154.027 239.351 154.157C241.818 154.676 242.338 157.793 242.468 159.871C242.468 161.689 242.338 163.507 242.078 165.196C241.948 166.364 241.688 167.533 241.299 168.702C241.169 169.351 240.26 170.91 240.39 171.429C240.649 172.209 241.039 171.559 242.078 171.17C242.727 170.91 243.247 170.52 243.766 170.39C244.935 170.001 246.104 169.871 247.273 170.39C249.61 171.3 250.26 173.637 250 175.975C249.74 179.092 247.922 182.079 246.364 184.676C244.286 188.313 241.818 191.689 239.091 194.806C238.701 195.326 238.182 195.455 237.662 195.455C234.156 197.533 229.221 196.235 227.013 192.079C225.584 189.352 224.675 185.715 224.675 182.598C224.675 181.04 224.935 179.352 225.714 177.923C226.364 176.884 227.662 176.364 227.403 175.585C227.013 174.287 224.805 173.118 224.156 171.819C223.507 170.65 223.247 169.351 223.377 168.053C223.507 166.624 224.156 165.845 225.065 164.676C225.584 163.897 226.364 164.287 226.753 162.858Z" fill="#E7EDFD"/>
<path d="M231.818 182.079C232.987 182.339 234.286 182.728 235.455 182.988C232.727 172.598 230.649 161.949 231.818 151.17C231.818 150.65 232.727 150.65 232.597 151.17C231.818 158.053 232.468 164.936 233.636 171.689C234.026 169.222 234.805 166.884 235.714 164.676C235.974 164.157 236.623 164.546 236.494 165.066C235.455 167.533 234.805 170.001 234.416 172.728C234.416 172.988 234.156 173.118 234.026 172.988C234.935 177.793 236.104 182.468 237.403 187.144C238.701 185.455 240.26 183.897 242.078 182.728C242.468 182.468 242.987 183.118 242.468 183.507C240.779 184.676 239.351 185.975 238.182 187.663C238.052 187.923 237.792 187.923 237.533 187.793C237.662 188.442 237.922 189.222 238.052 189.871C238.182 190.391 237.403 190.65 237.273 190.131C236.753 188.183 236.234 186.235 235.714 184.157H235.584C234.286 183.767 232.987 183.507 231.688 183.118C231.039 182.858 231.299 181.949 231.818 182.079Z" fill="#9FB1FB"/>
<path d="M188.442 104.286H190.39C192.078 104.286 193.377 102.988 193.377 101.299V99.7408H185.455V101.299C185.455 102.858 186.753 104.286 188.442 104.286Z" fill="url(#paint2_linear)"/>
<path d="M190.519 113.507H188.571C186.883 113.507 185.584 114.806 185.584 116.494V118.053H193.506V116.494C193.506 114.806 192.078 113.507 190.519 113.507Z" fill="url(#paint3_linear)"/>
<path d="M107.662 104.286H109.61C111.299 104.286 112.597 102.988 112.597 101.299V99.7408H104.675V101.299C104.675 102.858 105.974 104.286 107.662 104.286Z" fill="url(#paint4_linear)"/>
<path d="M67.4026 165.975H69.4805C71.1688 165.975 72.4675 164.676 72.4675 162.988V161.429H64.5455V162.988C64.4156 164.676 65.8442 165.975 67.4026 165.975Z" fill="url(#paint5_linear)"/>
<path d="M188.831 103.637H190.13V113.767H188.831V103.637Z" fill="#AF008F"/>
<path d="M74.5455 73.1172C74.8052 73.1172 75.0649 72.9874 75.3247 72.9874C76.1039 72.8575 77.7922 73.5069 77.013 73.6367C76.7533 73.6367 74.2857 74.2861 74.026 74.2861C73.1169 74.416 73.7662 73.2471 74.5455 73.1172Z" fill="#F4D8D5"/>
<path d="M42.987 175.196C42.987 175.196 40.6493 180.261 43.2467 181.689C45.8441 183.118 49.2207 181.559 50.7792 181.429C52.3376 181.3 57.2727 182.728 60.6493 182.339C63.8961 181.949 65.3246 180.65 64.8052 179.871C64.2857 178.962 56.1039 176.365 56.1039 176.365L42.987 175.196Z" fill="#000038"/>
<path d="M38.3117 132.728C37.5325 139.611 40.1299 148.962 41.6883 161.559C42.7273 169.611 43.1169 175.196 43.1169 175.196C43.1169 175.196 55.1948 178.572 57.4026 177.793C59.6104 177.014 48.052 172.988 48.052 172.988C48.052 172.988 52.0779 128.182 49.6104 125.195C47.013 122.208 39.6104 121.169 38.3117 132.728Z" fill="#F4D8D5"/>
<path d="M81.5584 56.6237C81.5584 56.6237 55.7143 59.3509 53.3766 60.3899C50.9091 61.4289 49.6104 67.9224 52.5974 68.7016C56.3636 69.7406 81.9481 60.5198 81.9481 60.5198L81.5584 56.6237Z" fill="#F4D8D5"/>
<path d="M50.2597 131.04L50.7792 84.5459L33.6363 84.416C33.6363 84.416 38.3117 116.364 38.0519 134.286C40.3896 136.494 46.1038 135.455 50.2597 131.04Z" fill="#F4D8D5"/>
<path d="M44.8051 5.58445L51.4285 54.6756C51.4285 54.6756 19.3506 57.0133 14.1558 55.7146C14.1558 55.7146 16.8831 12.078 22.7272 6.23381C28.7013 0.389622 44.8051 5.58445 44.8051 5.58445Z" fill="#000038"/>
<path d="M45.7143 32.8573C48.7013 31.5586 51.6883 33.3768 52.5974 36.6236C53.5065 39.8703 57.5325 60.26 57.1428 61.4289C56.8831 62.5977 55.7143 67.7925 49.7402 64.6756C45.5844 57.9224 42.8571 40.3898 42.8571 38.5716C42.7273 36.7534 43.8961 33.6365 45.7143 32.8573Z" fill="#F4D8D5"/>
<path d="M38.1818 126.494V131.299C38.1818 131.299 45.974 132.208 50.5194 129.351L50.6493 124.416L38.1818 126.494Z" fill="#DBB5BF"/>
<path d="M18.5714 174.157C18.5714 174.157 15.7142 178.962 18.1818 180.65C20.6493 182.339 24.1558 181.17 25.7142 181.17C27.2727 181.17 32.0779 183.118 35.3246 182.988C38.7012 182.858 40.1298 181.819 39.7402 180.91C39.3506 180.001 31.4285 176.494 31.4285 176.494L18.5714 174.157Z" fill="#000038"/>
<path d="M18.0519 131.429C16.4935 138.182 18.3117 147.793 18.5714 160.39C18.8311 168.442 18.5714 174.157 18.5714 174.157C18.5714 174.157 30.2597 178.702 32.4675 178.053C34.8051 177.533 23.6363 172.338 23.6363 172.338C23.6363 172.338 32.0779 128.182 29.8701 124.936C27.7922 121.819 20.6493 120.001 18.0519 131.429Z" fill="#F4D8D5"/>
<path d="M30.2597 130.91L35.3246 84.8056L18.3117 82.9874C18.3117 82.9874 19.7402 115.195 17.7922 133.118C19.7402 135.455 25.5844 134.936 30.2597 130.91Z" fill="#F4D8D5"/>
<path d="M22.0779 111.429L18.4416 125.325L18.0519 130.001C18.0519 130.001 25.1948 131.819 30.1298 130.91L32.2078 111.04L22.0779 111.429Z" fill="#DBB5BF"/>
<path d="M15.4545 126.884C15.4545 126.884 20.1298 127.923 22.9869 128.442C23.896 128.702 24.5454 114.156 25.7142 114.286C26.8831 114.546 27.922 125.195 27.1428 129.092C35.4545 129.871 46.8831 129.351 55.8441 122.728C51.8181 120.26 54.935 82.4679 49.6103 67.6627C49.6103 67.6627 41.6883 72.8575 21.8181 67.9224C21.8181 67.9224 21.8181 67.7925 21.948 67.6627C19.4804 72.2081 16.2337 77.5328 17.2727 85.1952C21.1688 114.156 15.4545 126.884 15.4545 126.884Z" fill="#7A97FA"/>
<path d="M21.8182 67.7925C21.8182 67.9224 21.6883 68.0523 21.6883 68.0523C41.5584 72.9874 49.4805 67.7925 49.4805 67.7925C48.7013 65.5847 48.3117 63.6367 48.3117 61.8185C48.0519 53.1171 53.3766 49.3509 52.987 44.4158C52.4675 39.221 47.7922 32.3378 47.7922 32.3378C47.7922 32.3378 24.026 30.9092 17.6623 34.6755C17.6623 34.6755 24.6753 52.9873 24.1558 61.1691C24.1558 61.8185 24.0259 62.338 23.8961 62.7276C23.5065 64.4159 22.7273 66.1042 21.8182 67.7925Z" fill="url(#paint6_linear)"/>
<path d="M40 25.3248L40.3896 32.4677C40.3896 32.4677 39.7402 36.6236 37.1428 36.6236C35.0649 36.6236 29.8701 33.5067 28.8312 32.0781L28.3117 20.0001L40 25.3248Z" fill="#F4D8D5"/>
<path d="M40.2598 30.9093C40.2598 30.9093 36.3637 31.8183 33.5065 28.9612C30.6494 26.104 31.2987 23.8962 31.2987 23.8962L40.1299 27.4027L40.2598 30.9093Z" fill="#DBB5BF"/>
<path d="M37.4026 29.2209H37.7922C42.7273 28.4417 44.6754 23.8962 44.1559 18.5715C43.7663 15.065 43.5065 4.67535 43.5065 4.67535C43.3767 4.02599 42.8572 3.50651 42.2078 3.63638L26.1039 5.97406C25.4546 6.10393 25.065 6.62341 25.1948 7.40263L27.1429 21.0391C27.7922 26.2339 32.4676 29.8703 37.4026 29.2209Z" fill="#F4D8D5"/>
<path d="M43.8961 10.1299V14.5455C43.8961 14.5455 33.2467 15.5845 29.0909 13.2468C24.935 10.9092 28.1818 8.96109 28.1818 8.96109L33.3766 8.44161C33.3766 8.31174 43.3766 8.31174 43.8961 10.1299Z" fill="#DBB5BF"/>
<path d="M40.5194 12.5975C41.1687 12.4676 41.8181 12.5975 42.4674 12.3377C42.2077 11.8182 41.6882 8.83122 42.2077 9.61045C42.5973 10.2598 43.2467 11.6884 43.6363 12.3377C44.6752 11.9481 47.1428 12.8572 48.0519 12.3377C48.4415 10.1299 46.883 4.80523 44.8051 3.11691C41.0389 7.7039e-06 28.7012 -2.85715 26.3636 4.15587C26.3636 4.15587 23.1168 4.67536 22.3376 7.27277C21.6882 9.74032 21.1688 21.5586 27.2727 21.5586C26.8831 20.13 28.8311 16.6235 29.3506 14.9351C29.8701 13.117 28.8311 9.74032 28.8311 9.74032C28.8311 9.74032 30.5194 12.9871 33.5064 12.8572C33.5064 11.9481 33.5064 11.039 33.5064 10.1299C33.5064 9.3507 34.8051 11.9481 34.8051 12.8572C36.3636 12.7273 37.6623 12.8572 39.3506 12.5975C38.8311 11.4286 38.8311 10.0001 38.3116 8.96109C37.7921 8.31174 39.7402 11.4286 40.5194 12.5975Z" fill="#000038"/>
<path d="M29.2208 16.7533C29.2208 16.7533 28.5714 14.1559 26.3637 15.065C23.2468 16.3637 24.6753 21.8183 28.5714 21.0391C30 20.6495 30.1299 17.7923 29.2208 16.7533Z" fill="#F4D8D5"/>
<path d="M28.5714 17.0131C28.5714 16.4936 28.1818 15.3248 27.1428 15.5845C26.1039 15.8442 25.4545 17.0131 25.7143 18.052C25.8441 19.091 26.4935 20.13 27.013 19.8702C27.5325 19.6105 26.6234 18.5715 26.6234 18.052C26.7532 17.4027 27.2727 16.8832 27.6623 17.1429C28.0519 17.5326 28.5714 17.5326 28.5714 17.0131Z" fill="#DBB5BF"/>
<path d="M21.948 43.1171C21.948 43.1171 24.2857 59.351 24.1558 61.299L27.9221 62.2081C27.9221 62.2081 28.5714 58.0522 27.9221 55.9743C27.2727 53.8964 28.1818 46.4938 28.7013 45.0652C29.3507 43.6366 26.8831 32.8573 25.8441 32.7274C24.8052 32.5976 20.6493 33.7664 20.6493 33.7664L21.948 43.1171Z" fill="#AF008F"/>
<path d="M21.8181 33.5067C25.1947 34.0261 26.4934 36.7534 25.4545 40.0002C24.5454 43.247 16.8831 62.5977 15.974 63.5068C15.0649 64.4159 8.05191 69.8705 8.05191 63.2471C8.18178 55.1951 15.0649 37.6625 15.974 36.1041C17.0129 34.6755 19.8701 33.117 21.8181 33.5067Z" fill="#F4D8D5"/>
<path d="M21.6882 68.0523C21.6882 68.0523 17.0129 73.6367 16.883 81.2991C16.7532 85.7147 17.922 92.0784 18.0519 94.416C18.1817 96.7537 18.3116 122.598 15.3246 126.884L19.4804 127.793C19.4804 127.793 21.1687 122.468 21.6882 118.053C22.2077 113.637 22.7272 97.4031 21.4285 91.2991C20.1298 85.1952 26.4934 69.0912 26.4934 69.0912L21.6882 68.0523Z" fill="#678AED"/>
<path d="M21.6883 68.0523C41.5584 72.9874 49.4805 67.7925 49.4805 67.7925C49.6104 66.7536 48.3117 61.8185 48.3117 61.8185C35.3246 65.0653 24.2857 61.0393 24.2857 61.0393C24.2857 61.0393 24.1558 61.1691 24.1558 61.299C23.2467 62.5977 22.0779 66.7536 21.8182 67.7925C21.6883 68.0523 21.6883 68.0523 21.6883 68.0523Z" fill="#678AED"/>
<path d="M40.2598 62.338C40.2598 62.338 15.8442 58.1821 13.3767 58.5717C10.9091 59.0912 6.62342 64.6757 9.22082 66.2341C12.5974 68.312 39.8702 66.364 39.8702 66.364L40.2598 62.338Z" fill="#F4D8D5"/>
<path d="M27.4026 24.2858C27.4026 24.2858 29.7402 41.169 32.0779 46.8834C32.0779 46.8834 29.3506 47.5327 27.922 47.1431C27.922 47.1431 24.2857 28.0521 24.6753 26.7534C24.8051 25.4547 27.4026 24.2858 27.4026 24.2858Z" fill="#000038"/>
<path d="M40.7792 21.4287C40.7792 21.4287 39.2207 22.078 38.7013 21.9482C38.1818 21.8183 38.961 22.8573 39.6104 22.5975C40.2597 22.2079 40.7792 21.4287 40.7792 21.4287Z" fill="#DBB5BF"/>
<path d="M22.3376 68.8315L47.6623 65.5848L46.7532 69.8705L22.3376 68.8315Z" fill="white"/>
<path d="M44.9351 69.7406L77.1428 71.0393L81.8182 48.8314C82.0779 47.7925 81.4285 46.8834 80.3896 46.8834L51.1688 45.7145C50.3896 45.7145 49.7402 46.234 49.6104 47.0132L44.9351 69.7406Z" fill="#9FB8FC"/>
<path d="M46.7532 69.8705L78.961 71.1692L83.7662 48.9613C84.026 47.9223 83.3766 47.0132 82.3376 47.0132L53.1168 45.8444C52.3376 45.8444 51.6883 46.3639 51.5584 47.1431L46.7532 69.8705Z" fill="white"/>
<path d="M43.8961 72.2081L78.961 73.6367L79.0909 71.1692L44.0259 69.7406L43.8961 72.2081Z" fill="#9FB8FC"/>
<path d="M22.2078 71.2991L44.8052 72.2082L44.9351 69.7406L22.3377 68.8315L22.2078 71.2991Z" fill="#5E80FA"/>
<path d="M68.5714 70.1302C68.8312 70.39 68.961 70.6497 69.0909 70.9094C68.961 70.5198 68.8312 70.0004 68.4415 69.6107C67.9221 68.9614 69.0909 68.1822 69.6104 68.8315L69.7402 68.9614C69.7402 68.9614 69.7402 68.9614 69.7402 69.0913C70.1299 69.6107 70.5195 70.1302 70.7792 70.7796C70.9091 71.1692 70.9091 71.6887 70.9091 72.2082C71.2987 70.9094 70.2597 69.351 70.1299 67.9224C70 67.2731 71.1688 67.1432 71.5584 67.5328C71.9481 68.0523 72.3376 68.5718 72.5974 69.0913C72.5974 68.9614 72.4675 68.7016 72.4675 68.5718C72.3377 67.7926 73.3766 67.4029 73.8961 68.0523C75.3247 69.7406 75.4546 72.5978 73.7662 74.1562C73.5065 74.416 73.1169 74.416 72.8571 74.1562C72.3377 74.5458 71.4286 74.2861 71.1688 74.1562C70.5195 74.2861 69.8701 74.2861 69.2208 73.8965C68.7013 74.1562 68.4415 74.2861 67.9221 73.7666C67.6623 73.5069 67.5324 73.1172 67.5324 72.8575C67.4026 71.9484 67.4026 71.4289 66.8831 70.6497C66.7532 70.1302 68.0519 69.4809 68.5714 70.1302Z" fill="#F4D8D5"/>
<path d="M38.7013 62.0782C38.7013 61.8185 38.8312 61.5588 39.0909 61.4289C40.7792 59.6107 43.2467 63.6367 44.1558 65.4549C44.4156 66.1042 44.1558 66.6237 43.8961 66.8835C43.6364 67.4029 43.1169 67.5328 42.7273 66.8835C42.4675 66.4938 42.2078 66.1042 41.948 65.8445C42.2078 66.7536 42.4675 67.7926 42.4675 68.312C42.4675 68.7016 42.2078 69.0913 41.8182 69.0913C41.2987 69.0913 41.0389 68.8315 40.7792 68.1822C40.5195 67.6627 40.2597 67.1432 40 66.6237C40.2597 67.4029 40.3896 68.1822 39.8701 68.8315C39.6104 69.2211 39.0909 69.2211 38.7013 68.8315C38.5714 68.7017 38.5714 68.4419 38.4416 68.1822C38.0519 67.4029 37.6623 65.8445 36.8831 65.5847C37.4026 66.7536 38.3117 67.7926 37.5324 69.0913C36.8831 70.2601 35.974 69.0913 35.4545 68.1822C33.1169 64.286 36.6234 62.5977 38.7013 62.0782Z" fill="#F4D8D5"/>
<path d="M72.3377 171.689H73.5065C75.9741 171.689 78.052 169.611 78.052 167.144V140.52C78.052 138.702 79.4805 137.273 81.2987 137.273H105.065C107.532 137.273 109.61 135.195 109.61 132.728V104.286H108.312V132.728C108.312 134.546 106.883 135.975 105.065 135.975H81.2987C78.8312 135.975 76.7533 138.053 76.7533 140.52V167.144C76.7533 168.962 75.3247 170.39 73.5065 170.39H72.3377C70.5195 170.39 69.0909 168.962 69.0909 167.144V165.975H67.7922V167.144C67.7922 169.611 69.8701 171.689 72.3377 171.689Z" fill="#AF008F"/>
<path d="M20 185.975C20 186.235 19.8701 186.624 19.8701 186.884C19.8701 187.274 19.6104 187.533 19.2208 187.533C18.961 188.183 18.7013 188.962 18.4416 189.611C18.052 190.52 16.7533 190.131 17.013 189.222C16.7533 189.222 16.4935 188.962 16.4935 188.572C16.4935 163.118 0.389614 168.702 0.259743 168.313C-0.259735 168.053 0.779224 167.014 0.909096 166.884C4.28572 164.027 9.48052 163.377 13.2468 166.235C16.2338 168.442 17.5325 172.209 18.3117 176.235C18.9611 170.52 20 164.936 21.2987 159.351C21.8182 157.014 21.9481 152.728 24.4156 151.299C25.8442 150.52 27.9221 151.429 28.7013 152.858C29.0909 153.377 24.1558 150.001 20.6493 180.91C22.5974 176.624 24.8052 172.468 27.6623 168.832C29.4805 166.624 33.8961 165.196 34.4156 169.092C34.2857 169.351 30.2597 165.066 20 185.975Z" fill="#9FB8FC"/>
<path d="M32.3377 179.871C27.7922 176.105 23.6364 178.183 20.5195 181.689C23.5065 171.689 20.7792 159.222 9.61042 157.014C8.8312 156.884 16.3637 160.91 17.2728 171.819C17.5325 175.455 17.1429 179.092 16.4935 182.728C15.7143 178.832 14.4156 174.806 11.2987 172.858C7.53251 170.39 2.20785 173.637 0.77928 177.403C0.77928 177.533 0.77928 177.533 0.77928 177.663C0.649408 178.313 9.22083 170.001 13.1169 178.962C14.026 181.04 14.9351 183.118 15.4546 185.326C15.4546 185.585 15.4546 185.845 15.5845 186.105C14.9351 185.196 14.2858 184.416 13.3767 183.897C11.039 182.339 8.31174 182.598 5.58447 182.988C4.93512 183.118 13.5065 183.637 15.5845 190.52C15.8442 191.17 16.4935 191.17 16.7533 190.78C17.1429 190.78 17.5325 190.52 17.5325 190.001C19.0909 190.52 20.3897 188.702 20.9091 187.403C24.9351 177.144 32.5974 180.131 32.3377 179.871Z" fill="#87A9FB"/>
</g>
<defs>
<linearGradient id="paint0_linear" x1="171.972" y1="133.255" x2="153.597" y2="133.255" gradientUnits="userSpaceOnUse">
<stop stop-color="#AE2BB6"/>
<stop offset="1" stop-color="#DB006F"/>
</linearGradient>
<linearGradient id="paint1_linear" x1="171.972" y1="167.637" x2="153.597" y2="167.637" gradientUnits="userSpaceOnUse">
<stop stop-color="#AE2BB6"/>
<stop offset="1" stop-color="#DB006F"/>
</linearGradient>
<linearGradient id="paint2_linear" x1="193.445" y1="101.996" x2="185.48" y2="101.996" gradientUnits="userSpaceOnUse">
<stop stop-color="#AE2BB6"/>
<stop offset="1" stop-color="#DB006F"/>
</linearGradient>
<linearGradient id="paint3_linear" x1="185.48" y1="115.757" x2="193.445" y2="115.757" gradientUnits="userSpaceOnUse">
<stop stop-color="#AE2BB6"/>
<stop offset="1" stop-color="#DB006F"/>
</linearGradient>
<linearGradient id="paint4_linear" x1="112.658" y1="101.996" x2="104.693" y2="101.996" gradientUnits="userSpaceOnUse">
<stop stop-color="#AE2BB6"/>
<stop offset="1" stop-color="#DB006F"/>
</linearGradient>
<linearGradient id="paint5_linear" x1="72.4158" y1="163.708" x2="64.4512" y2="163.708" gradientUnits="userSpaceOnUse">
<stop stop-color="#AE2BB6"/>
<stop offset="1" stop-color="#DB006F"/>
</linearGradient>
<linearGradient id="paint6_linear" x1="17.6393" y1="51.1784" x2="53.0019" y2="51.1784" gradientUnits="userSpaceOnUse">
<stop stop-color="#AE2BB6"/>
<stop offset="1" stop-color="#DB006F"/>
</linearGradient>
<clipPath id="clip0">
<rect width="250" height="196.494" fill="white" transform="matrix(-1 0 0 1 250 0)"/>
</clipPath>
</defs>
</svg>
