<svg width="423" height="417" viewBox="0 0 423 417" fill="none" xmlns="http://www.w3.org/2000/svg">
<g clip-path="url(#clip0)">
<path d="M236.665 262.721H234.428V261.156H236.665V262.721ZM236.665 254.448H234.428V249.977H236.665V254.448ZM236.665 243.269H234.428V238.797H236.665V243.269ZM236.665 232.089H234.428V227.617H236.665V232.089ZM236.665 220.91H234.428V216.438H236.665V220.91ZM236.665 209.73H234.428V205.258H236.665V209.73ZM236.665 198.55H234.428V194.078H236.665V198.55ZM236.665 187.371H234.428V182.899H236.665V187.371ZM236.665 176.191H234.428V171.719H236.665V176.191ZM236.665 165.011H234.428V160.54H236.665V165.011ZM236.665 153.832H234.428V149.36H236.665V153.832ZM236.665 142.652H234.428V138.18H236.665V142.652ZM236.665 131.473H234.428V127.001H236.665V131.473ZM236.665 120.293H234.428V115.821H236.665V120.293ZM236.665 109.113H234.428V104.641H236.665V109.113ZM236.665 97.9336H234.428V93.4618H236.665V97.9336ZM236.665 86.754H234.428V82.2822H236.665V86.754ZM236.665 75.5744H234.428V71.1025H236.665V75.5744ZM236.665 64.3948H234.428V59.9229H236.665V64.3948ZM236.665 53.2151H234.428V48.7433H236.665V53.2151ZM236.665 42.0355H234.428V37.5637H236.665V42.0355ZM236.665 30.8559H234.428V26.384H236.665V30.8559Z" fill="#AFC8FC"/>
<path d="M353.208 257.802H350.971V256.684H353.208V257.802ZM353.208 249.977H350.971V245.505H353.208V249.977ZM353.208 238.797H350.971V234.325H353.208V238.797ZM353.208 227.617H350.971V223.145H353.208V227.617ZM353.208 216.438H350.971V211.966H353.208V216.438ZM353.208 205.258H350.971V200.786H353.208V205.258ZM353.208 194.078H350.971V189.607H353.208V194.078ZM353.208 182.899H350.971V178.427H353.208V182.899ZM353.208 171.719H350.971V167.247H353.208V171.719ZM353.208 160.54H350.971V156.068H353.208V160.54ZM353.208 149.36H350.971V144.888H353.208V149.36ZM353.208 138.18H350.971V133.708H353.208V138.18ZM353.208 127.001H350.971V122.529H353.208V127.001Z" fill="#AFC8FC"/>
<path d="M257.469 7.37855C243.6 10.2853 233.981 0 233.981 0C233.981 0 226.375 7.82574 215.191 7.82574C213.625 7.82574 212.059 7.60214 210.493 7.37855C210.493 7.37855 205.572 42.4826 233.981 54.333C255.232 45.6129 257.916 23.9244 257.916 13.4156C257.692 9.83807 257.469 7.37855 257.469 7.37855ZM233.981 48.0724C212.059 38.9051 215.862 12.074 215.862 12.074C226.599 14.0863 233.981 6.48418 233.981 6.26059C233.981 6.26059 239.797 12.2976 248.521 12.2976C249.639 12.2976 250.982 12.2976 252.1 11.8504C252.1 12.074 255.903 38.9051 233.981 48.0724Z" fill="#93B1FB"/>
<path d="M233.981 48.0725C212.059 38.9052 215.862 12.0741 215.862 12.0741C226.599 14.0865 233.981 6.48433 233.981 6.26074C233.981 6.26074 239.797 12.2977 248.521 12.2977C249.639 12.2977 250.981 12.2977 252.1 11.8506C252.1 12.0741 255.903 38.9052 233.981 48.0725Z" fill="white"/>
<path d="M355.525 80.7182V70.6565H342.104V80.7182H355.525Z" fill="#93B1FB"/>
<path d="M348.958 75.7977C358.13 75.7977 365.735 68.1955 365.735 59.0282C365.735 49.8609 358.13 42.2588 348.958 42.2588C339.787 42.2588 332.181 49.8609 332.181 59.0282C332.181 68.1955 339.563 75.7977 348.958 75.7977Z" fill="#93B1FB"/>
<path d="M362.604 59.0281C362.604 55.4506 361.261 52.3203 359.024 49.8608C356.564 46.9541 352.761 45.3889 348.735 45.3889C341.129 45.3889 335.089 51.4259 335.089 59.0281C335.089 63.0527 336.879 66.6302 339.563 69.0897C342.024 71.3256 345.156 72.6672 348.735 72.6672C356.564 72.6672 362.604 66.4066 362.604 59.0281Z" fill="white"/>
<path d="M348.958 57.2393C350.748 57.2393 352.09 55.8978 352.09 54.1091C352.09 52.3203 350.748 50.9788 348.958 50.9788C347.169 50.9788 345.827 52.3203 345.827 54.1091C345.827 55.6742 347.169 57.2393 348.958 57.2393Z" fill="#93B1FB"/>
<path d="M353.208 80.7166H344.484V91.449L347.169 94.5793L344.484 97.9332V99.9455L347.169 103.747L344.484 106.877V108.442L347.169 111.349L344.484 113.808V115.597L347.169 118.951L344.484 121.858V124.094L350.077 131.025H353.208V80.7166Z" fill="#93B1FB"/>
<path d="M391.46 393.523H182.308C176.045 393.523 171.795 388.38 172.69 382.343L191.256 250.424C192.151 244.163 197.967 239.244 204.006 239.244H413.158C419.421 239.244 423.671 244.387 422.776 250.424L404.21 382.343C403.539 388.604 397.723 393.523 391.46 393.523Z" fill="#4054D5"/>
<path d="M378.038 393.523H168.887C162.623 393.523 158.373 388.38 159.268 382.343L177.834 250.424C178.729 244.163 184.545 239.244 190.585 239.244H399.736C405.999 239.244 410.249 244.387 409.355 250.424L390.788 382.343C389.894 388.604 384.301 393.523 378.038 393.523Z" fill="#5B85F7"/>
<path d="M367.748 385.25H181.414C175.821 385.25 172.019 380.778 172.69 375.188L189.243 257.579C189.914 251.989 195.059 247.517 200.651 247.517H386.986C392.578 247.517 396.381 251.989 395.71 257.579L379.157 375.188C378.486 380.778 373.341 385.25 367.748 385.25Z" fill="white"/>
<path d="M391.236 404.255H107.148C99.3188 404.255 93.0555 397.995 93.0555 390.169V380.107H405.328V390.169C405.328 397.995 399.065 404.255 391.236 404.255Z" fill="#394FC0"/>
<path d="M377.814 404.255H93.5029C85.6737 404.255 79.4103 397.995 79.4103 390.169V380.107H391.683V390.169C391.683 397.995 385.42 404.255 377.814 404.255Z" fill="#4054D5"/>
<path d="M118.78 374.741H95.0687V380.107H118.78V374.741Z" fill="#A0BEFC"/>
<path d="M146.741 374.741H123.03V380.107H146.741V374.741Z" fill="#A0BEFC"/>
<path d="M174.479 374.741H150.768V380.107H174.479V374.741Z" fill="#A0BEFC"/>
<path d="M257.245 374.741H178.729V380.107H257.245V374.741Z" fill="#A0BEFC"/>
<path d="M286.101 374.741H262.39V380.107H286.101V374.741Z" fill="#A0BEFC"/>
<path d="M314.062 374.741H290.351V380.107H314.062V374.741Z" fill="#A0BEFC"/>
<path d="M342.024 374.741H318.313V380.107H342.024V374.741Z" fill="#A0BEFC"/>
<path d="M369.761 374.741H346.05V380.107H369.761V374.741Z" fill="#A0BEFC"/>
<path d="M391.683 380.107H79.1867V389.051H391.683V380.107Z" fill="#5B85F7"/>
<path d="M313.615 273.677H200.651L202.441 261.603H315.405L313.615 273.677Z" fill="#AFC8FC"/>
<path d="M382.065 273.677H325.471L327.26 261.603H383.854L382.065 273.677Z" fill="#DBE6FD"/>
<path d="M235.547 296.26H197.519L199.085 284.186H237.336L235.547 296.26Z" fill="#DBE6FD"/>
<path d="M378.933 296.26H246.508L248.297 284.186H380.499L378.933 296.26Z" fill="#AFC8FC"/>
<path d="M269.324 319.066H194.164L195.954 306.992H270.89L269.324 319.066Z" fill="#DBE6FD"/>
<path d="M375.801 319.066H282.075L283.864 306.992H377.367L375.801 319.066Z" fill="#DBE6FD"/>
<path d="M322.339 341.873H191.032L192.822 329.799H323.905L322.339 341.873Z" fill="#AFC8FC"/>
<path d="M372.446 341.873H338.221L339.787 329.799H374.235L372.446 341.873Z" fill="#DBE6FD"/>
<path d="M282.969 364.679H187.901L189.466 352.605H284.759L282.969 364.679Z" fill="#DBE6FD"/>
<path d="M369.314 364.679H295.049L296.838 352.605H371.104L369.314 364.679Z" fill="#AFC8FC"/>
<path d="M102.451 370.716C90.5951 367.139 78.5158 369.375 68.4497 376.306C62.41 380.331 57.7125 386.144 53.4623 392.181C54.8045 389.945 56.1466 387.709 57.0414 385.25C60.6205 380.107 63.5285 374.741 64.8706 368.257C66.2127 362.22 66.2127 355.735 64.8706 349.698C63.7521 343.661 60.8442 337.848 59.2783 332.035C59.2783 328.01 53.9097 309.228 53.4623 311.688C50.107 324.88 48.9885 338.295 50.7781 351.934C51.8965 360.878 53.9097 369.151 51.0017 377.647C47.199 384.132 41.8304 390.169 38.2513 396.876C38.2513 396.876 38.2513 397.1 38.0277 397.1C37.804 393.299 38.2513 389.498 39.8172 385.026C41.8304 379.436 43.8436 374.294 44.9621 368.257C46.9753 355.959 44.5147 344.779 40.2646 333.153C35.1197 318.843 34.2249 305.427 33.7775 290.446C33.5538 279.938 31.988 270.1 26.6194 261.156C26.172 260.261 25.7246 259.367 25.2773 258.249L25.0536 258.026C24.8299 257.802 24.8299 257.578 24.6062 257.355C22.593 255.79 22.3693 276.584 21.2508 284.186C17.4481 294.695 13.869 305.874 14.5401 316.83C15.4348 328.681 22.8167 337.624 30.8695 345.674C32.8828 351.711 33.5538 357.524 32.2117 364.456C31.3169 368.927 29.9748 373.176 29.08 377.647C28.8563 368.257 28.6326 358.866 23.7114 350.369C21.9219 347.239 23.7114 373.399 23.9351 384.132C19.0139 375.859 15.2112 366.915 12.9742 357.077C9.39518 340.978 9.84257 324.656 2.01338 309.675C2.01338 309.452 1.78968 309.005 1.78968 308.781C0.671228 305.427 3.13183 340.531 2.23707 355.735C1.56599 366.021 0.894919 375.188 4.69767 385.026C10.5136 400.007 22.593 410.516 37.5803 415.435C38.2513 417 40.4883 418.118 42.0541 416.329C42.7252 415.658 43.1726 415.211 43.8436 414.54C52.7913 411.41 61.0678 406.491 67.5549 399.56C70.6866 396.206 73.5945 392.852 75.6078 388.827C83.437 372.952 104.017 371.163 102.451 370.716Z" fill="#AFC8FC"/>
<path d="M33.5537 349.251C33.1063 346.121 31.5405 343.438 29.751 340.979C26.843 335.389 24.3824 329.352 23.4876 323.091C22.1455 314.371 23.7113 305.204 25.0535 296.484C27.0667 283.292 29.0799 270.1 25.5008 256.908C25.0535 255.119 22.3692 255.79 22.8165 257.579C22.8165 257.802 22.8165 258.026 23.0402 258.249C22.8165 258.473 22.5929 258.696 22.5929 259.144C23.7113 280.161 11.1846 299.837 14.7637 320.632C16.3295 329.128 20.3559 334.047 25.9482 340.308C35.1196 350.593 29.751 365.35 27.7377 377.648C27.5141 379.436 30.1984 380.107 30.422 378.318C31.7642 369.375 35.1196 358.642 33.5537 349.251Z" fill="#8DABFB"/>
<path d="M32.2117 399.56C31.988 399.336 31.7643 399.113 31.7643 398.889C28.1852 391.51 25.9483 383.685 25.2772 375.412C25.2772 374.741 25.2772 373.847 25.2772 373.176C25.2772 370.269 25.2772 367.139 25.0536 364.232C25.2772 359.313 25.0536 354.394 23.264 349.475C22.5929 347.91 19.9087 348.581 20.5797 350.146C20.8034 350.593 20.8034 351.04 21.0271 351.487C21.0271 351.711 20.8034 351.935 21.0271 352.382C22.8166 361.996 21.6982 371.834 22.593 381.449C19.0139 373.847 16.1059 365.797 15.2111 357.524C14.9875 355.736 12.0795 355.736 12.3032 357.524C14.3164 372.729 21.6982 386.368 28.4089 400.007C28.6326 400.454 29.08 400.678 29.5274 400.678C29.5274 400.901 29.7511 400.901 29.7511 401.125C29.9748 401.572 30.1985 401.796 30.6458 401.796C31.5406 402.466 33.3301 400.678 32.2117 399.56Z" fill="#8DABFB"/>
<path d="M55.4754 313.7C55.4754 313.03 55.2518 312.582 54.8044 312.135C54.8044 310.57 52.5675 310.123 52.1201 311.688C48.3173 325.998 51.0016 340.308 51.2253 354.618C51.449 362.444 50.7779 370.269 47.87 377.424C45.1857 383.908 40.2645 389.051 37.8039 395.535C37.5802 395.982 37.8039 396.206 37.8039 396.43C36.6854 397.771 38.6986 399.783 39.8171 398.442C48.541 387.933 54.357 377.424 55.4754 363.562C57.0413 347.016 53.0148 330.47 55.4754 313.7Z" fill="#8DABFB"/>
<path d="M102.898 371.387C102.898 370.716 102.674 370.045 102.003 369.822C90.8187 367.139 79.1868 368.704 69.3443 374.741C58.1598 381.672 51.6727 393.97 44.5146 404.702C43.8435 405.597 44.5146 406.491 45.4094 406.715C45.1857 406.938 45.1857 406.938 44.962 407.162C43.6199 408.28 45.6331 410.292 46.9752 409.174C55.4755 402.243 63.5284 394.864 71.1339 386.591C75.384 382.119 78.9631 376.753 85.0027 374.517C90.3713 372.505 96.1873 372.952 101.78 373.176C102.451 372.952 102.898 372.058 102.898 371.387Z" fill="#8DABFB"/>
<path d="M36.6854 410.74C30.1984 409.174 24.8298 405.821 20.1323 401.349C15.4348 396.653 12.0794 391.063 10.0662 384.803C10.0662 384.579 10.0662 384.356 9.84249 384.356C10.2899 383.908 10.5136 383.461 10.0662 382.79C9.6188 381.896 9.39511 381.225 8.94773 380.331C7.82927 373.623 8.50034 366.915 8.05296 360.208C7.1582 343.438 2.23699 327.116 4.25021 310.347C4.25021 309.452 3.57914 309.005 2.90807 309.005C2.23699 308.558 0.894845 308.558 0.671154 309.676C-1.11838 320.855 8.01384e-05 331.811 1.11854 342.991C1.78961 349.028 2.46068 354.841 2.46068 360.878C2.46068 366.468 1.56592 372.058 2.23699 377.424C3.57914 387.933 11.1846 398.889 20.5797 406.268C20.8034 406.491 20.8034 406.491 21.027 406.715C21.027 406.715 21.2507 406.715 21.2507 406.938C25.7246 410.292 30.6458 412.752 35.567 413.87C37.5802 413.87 38.475 411.187 36.6854 410.74Z" fill="#8DABFB"/>
<path d="M300.865 248.859H196.848V186.476C196.848 157.856 220.112 134.379 248.968 134.379C277.601 134.379 301.088 157.633 301.088 186.476V248.859H300.865ZM211.835 233.878H285.877V186.476C285.877 166.129 269.324 149.583 248.968 149.583C228.612 149.583 212.059 166.129 212.059 186.476V233.878H211.835Z" fill="#3D51C6"/>
<path d="M200.875 192.513C200.204 192.513 199.533 191.842 199.533 191.172C199.533 176.414 205.349 162.775 216.086 152.49C216.533 152.043 217.428 152.043 217.875 152.49C218.323 152.937 218.323 153.832 217.875 154.279C207.585 163.893 201.993 177.085 201.993 190.948C202.217 191.842 201.77 192.513 200.875 192.513ZM228.389 146.677C227.941 146.677 227.494 146.453 227.27 146.006C227.047 145.335 227.27 144.664 227.718 144.217C235.547 139.969 244.271 137.733 252.995 137.733C253.666 137.733 254.337 138.404 254.337 139.074C254.337 139.745 253.666 140.416 252.995 140.416C244.495 140.416 236.218 142.428 228.836 146.453C228.612 146.677 228.389 146.677 228.389 146.677Z" fill="#6A85FA"/>
<path d="M320.326 320.632H195.953C193.493 320.632 191.256 318.619 191.256 315.936V214.649C191.256 212.189 193.269 209.953 195.953 209.953H320.102C322.563 209.953 324.799 211.966 324.799 214.649V316.16C324.799 318.619 322.786 320.632 320.326 320.632Z" fill="#6A85FA"/>
<path d="M307.799 320.632H183.427C180.966 320.632 178.729 318.619 178.729 315.936V214.649C178.729 212.189 180.742 209.953 183.427 209.953H307.575C310.036 209.953 312.273 211.966 312.273 214.649V316.16C312.273 318.619 310.26 320.632 307.799 320.632Z" fill="#93B1FB"/>
<path d="M301.312 316.831H189.914C187.006 316.831 184.769 314.595 184.769 311.688V218.897C184.769 215.99 187.006 213.754 189.914 213.754H301.088C303.996 213.754 306.233 215.99 306.233 218.897V311.688C306.457 314.595 303.996 316.831 301.312 316.831ZM189.914 215.543C188.124 215.543 186.558 217.108 186.558 218.897V311.688C186.558 313.477 188.124 315.042 189.914 315.042H301.088C302.878 315.042 304.444 313.477 304.444 311.688V218.897C304.444 217.108 302.878 215.543 301.088 215.543H189.914Z" fill="#5873E5"/>
<path d="M257.245 292.012L249.192 262.945C253.218 260.262 255.903 255.566 255.903 250.424C255.903 242.151 249.192 235.443 240.915 235.443C232.639 235.443 225.928 242.151 225.928 250.424C225.928 255.566 228.612 260.262 232.639 262.945L224.586 292.012H257.245Z" fill="#3D51C6"/>
<path d="M263.956 292.012L255.903 262.945C259.929 260.262 262.613 255.566 262.613 250.424C262.613 242.151 255.903 235.443 247.626 235.443C239.349 235.443 232.639 242.151 232.639 250.424C232.639 255.566 235.323 260.262 239.35 262.945L231.297 292.012H263.956Z" fill="#000038"/>
<path d="M78.2919 400.007L77.8445 401.572C77.6209 403.137 76.055 404.255 74.4892 404.255C72.9233 404.255 70.6864 403.808 68.0021 402.69C62.4099 400.231 42.5013 391.287 42.2777 389.945C42.054 388.604 43.8435 383.908 43.8435 383.908L52.5674 390.169L78.2919 400.007Z" fill="#393958"/>
<path d="M60.6203 368.033L57.0413 380.778L62.6335 387.709C62.6335 387.709 51.2253 385.921 46.7515 376.53L51.2253 364.679L60.6203 368.033Z" fill="#F4D8D5"/>
<path d="M118.556 233.431C118.556 233.431 135.78 301.85 134.662 310.123C133.544 318.396 135.333 381.672 135.333 381.672H118.556C118.556 381.672 110.056 329.799 107.148 314.371C106.701 312.359 86.5684 234.996 86.5684 234.996C86.5684 234.996 105.806 235.667 118.556 233.431Z" fill="white"/>
<path d="M56.8175 380.554C56.8175 380.554 75.8313 394.417 78.2919 400.007C77.8445 402.019 71.5811 402.466 66.4362 400.007C61.0676 397.547 42.725 388.157 43.1724 386.368C44.0671 383.014 44.9619 379.213 46.5277 376.306C48.3172 381.672 62.4098 387.709 56.8175 380.554Z" fill="#000038"/>
<path d="M162.847 395.759L163.295 397.324C163.742 398.889 163.071 400.454 161.505 401.349C160.163 402.019 157.926 402.914 155.242 403.137C149.202 403.808 127.504 405.597 126.609 404.479C125.714 403.361 125.043 398.442 125.043 398.442L135.557 399.56L162.847 395.759Z" fill="#393958"/>
<path d="M131.754 376.306L134.662 389.275L142.939 392.852C142.939 392.852 132.201 396.877 123.478 390.616L121.688 378.095L131.754 376.306Z" fill="#F4D8D5"/>
<path d="M134.662 389.051C134.662 389.051 157.926 391.957 162.847 395.759C163.518 397.547 158.15 400.901 152.334 401.572C146.518 402.019 125.714 402.69 125.267 400.901C124.372 397.547 123.477 393.746 123.254 390.616C127.728 394.193 142.939 392.628 134.662 389.051Z" fill="#000038"/>
<path d="M91.7133 227.17C91.7133 227.17 87.2394 297.602 83.6604 305.204C80.0813 312.806 62.6334 373.623 62.6334 373.623L46.5276 368.481C46.5276 368.481 54.1331 316.607 55.9227 300.732C56.1464 298.72 54.1332 224.487 60.3965 218.674C66.6599 213.084 78.7392 225.381 91.7133 227.17Z" fill="white"/>
<path d="M68.6732 370.716C68.6732 370.716 66.6599 377.201 66.2126 377.424C65.7652 377.648 43.6198 370.716 42.725 370.716C42.0539 370.493 44.9619 363.114 44.9619 363.114C44.9619 363.114 68.0021 367.81 68.6732 370.716Z" fill="#506AED"/>
<path d="M128.399 214.202C119.004 201.01 112.517 189.83 108.714 180.216C106.03 173.508 104.687 167.247 104.687 161.21C104.687 160.763 104.687 160.316 104.687 159.869C104.687 153.384 101.556 149.136 102.451 148.242C102.674 148.018 102.898 147.795 103.122 147.571C104.016 146.9 105.359 146.453 106.701 146.453C108.49 146.453 110.727 146.9 113.411 148.465C114.083 148.913 114.977 149.36 115.648 150.031C117.438 151.596 119.451 153.385 121.688 156.068C131.307 167.694 146.518 199.445 144.504 205.705C142.491 211.742 131.53 218.674 128.399 214.202Z" fill="#5E80FA"/>
<path d="M115.648 171.496C115.872 168.365 115.648 165.906 114.977 162.776C113.635 157.186 111.398 151.819 108.714 146.9C108.714 146.677 106.701 146.23 105.806 146.453C105.358 146.453 104.911 146.677 104.464 146.9C103.569 150.925 103.345 155.173 103.345 159.198C103.345 160.092 103.345 160.987 103.569 161.881C106.253 167.247 110.28 190.948 115.648 195.867C115.648 194.078 115.648 173.508 115.648 171.496Z" fill="#5873E5"/>
<path d="M126.609 209.506C126.609 209.506 124.596 218.674 170.229 245.057C170.229 245.057 175.374 240.586 176.94 236.337C176.94 236.337 146.518 200.786 140.031 199.668C133.543 198.774 126.609 209.506 126.609 209.506Z" fill="#5E80FA"/>
<path d="M123.254 241.033C123.254 241.033 93.0555 251.989 61.515 245.728C58.607 245.057 55.6991 244.387 52.7911 243.492L61.7387 165.235C61.7387 164.788 61.7387 164.564 61.9624 164.117L62.1861 161.657L63.9756 146.229C63.9756 146.229 65.5415 146.006 68.0021 145.782C75.6076 144.888 92.1607 143.77 107.148 146.453C106.924 146.453 120.793 229.629 123.254 241.033Z" fill="#93B1FB"/>
<path d="M72.9233 193.408C69.1205 187.818 67.5547 181.557 68.0021 174.626C68.6731 164.117 78.9629 150.701 67.7784 145.559C65.3178 145.782 63.7519 146.006 63.7519 146.006L61.9624 161.434C61.9624 162.328 61.7387 163.223 61.7387 163.893C61.7387 164.341 61.7387 164.564 61.515 165.011L52.5674 243.269C55.4754 244.163 58.3834 244.834 61.2913 245.505C62.4098 245.057 63.5282 244.387 64.423 243.269C69.1205 237.008 63.7519 229.63 71.5811 224.263C78.2919 220.015 76.726 198.997 72.9233 193.408Z" fill="#7EA1FB"/>
<path d="M69.3442 147.124C67.5547 143.323 55.028 147.124 50.1068 157.633C43.6197 171.272 31.7641 208.836 34.6721 214.649C37.5801 220.462 51.8963 221.357 53.0148 216.214C54.3569 210.848 78.0682 165.235 69.3442 147.124Z" fill="#5E80FA"/>
<path d="M106.03 101.511C106.03 101.511 109.832 114.479 106.701 116.492C103.569 118.504 96.8582 103.3 98.4241 102.182C99.7662 101.064 104.464 99.4985 106.03 101.511Z" fill="#000038"/>
<path d="M95.516 133.261L96.1871 145.559C96.1871 145.559 95.516 153.161 91.0422 153.161C84.7789 153.161 76.9497 147.124 75.1601 144.441L74.2654 123.647L95.516 133.261Z" fill="#F4D8D5"/>
<path d="M95.516 139.298L96.1871 139.075C105.135 137.062 110.503 128.119 108.49 119.175L102.898 96.5921C102.674 95.4742 101.556 94.8034 100.437 95.027L71.5811 101.735C70.4626 101.958 69.7915 103.076 70.0152 104.194L75.3838 127.001C77.6207 135.944 86.5684 141.534 95.516 139.298Z" fill="#F4D8D5"/>
<path d="M104.464 102.182L105.582 107.101C105.582 107.101 88.5817 110.008 74.9366 109.337L73.5944 104.641L85.2264 100.617L95.7398 99.7224L104.464 102.182Z" fill="#DBB5BF"/>
<path d="M109.385 99.2752C111.622 91.6731 103.345 88.0956 99.0951 87.2012C92.6081 86.0833 74.9365 85.1889 69.7916 97.2629C69.7916 97.2629 66.2125 100.617 65.5414 105.089C64.6467 109.337 65.7651 129.684 76.0549 128.566C75.1601 126.106 78.0681 120.069 78.7392 116.939C79.4103 113.809 76.2786 106.207 76.2786 106.207C76.2786 106.207 106.924 106.877 109.385 99.2752Z" fill="#000038"/>
<path d="M78.5156 119.846C78.5156 119.846 76.9497 115.374 73.3707 117.386C68.2258 120.069 71.5811 129.237 78.0682 127.224C80.5288 126.33 80.3051 121.411 78.5156 119.846Z" fill="#F4D8D5"/>
<path d="M77.6207 120.293C77.6207 119.398 76.726 117.61 74.9364 118.28C73.1469 118.951 72.2521 120.964 72.6995 122.752C73.1469 124.541 74.2654 126.106 75.1601 125.659C76.0549 125.212 74.2654 123.647 74.2654 122.529C74.2654 121.411 75.1601 120.293 75.8312 120.964C76.726 121.187 77.6207 121.187 77.6207 120.293Z" fill="#DBB5BF"/>
<path d="M104.687 122.529C104.687 122.529 102.227 124.094 100.661 124.318C100.661 124.318 100.885 126.106 102.003 125.659C103.122 125.212 104.687 122.529 104.687 122.529Z" fill="#DBB5BF"/>
<path d="M55.9227 261.156L56.1464 300.508L51.8962 329.575C51.8962 329.575 58.3833 306.545 61.0676 305.427C63.7519 304.309 67.3309 304.533 67.3309 304.533L61.0676 301.85L64.8703 300.285C64.8703 300.285 61.2913 296.707 60.1728 288.434C58.8307 280.161 55.9227 261.156 55.9227 261.156Z" fill="#8DABFB"/>
<path d="M92.1607 257.802L106.924 314.148L117.885 378.766L121.688 378.095C121.688 378.095 111.846 319.067 112.293 316.607C112.74 314.371 119.898 311.688 119.898 311.688C119.898 311.688 112.069 311.912 111.846 311.017C111.622 309.899 113.859 307.44 113.859 307.44C113.859 307.44 110.28 305.875 106.477 296.484C102.674 287.093 92.1607 257.802 92.1607 257.802Z" fill="#8DABFB"/>
<path d="M140.254 377.201C140.254 377.201 140.254 384.132 140.031 384.355C139.807 384.579 116.319 384.803 115.648 385.026C114.754 385.026 115.648 377.201 115.648 377.201C115.648 377.201 138.688 374.517 140.254 377.201Z" fill="#506AED"/>
<path d="M106.253 102.182C106.253 102.182 109.832 101.287 110.727 98.6044C111.622 95.9212 111.846 84.9652 107.819 82.9529C107.819 82.9529 106.701 86.5304 102.003 86.3068C99.9899 86.3068 89.029 86.0832 88.1343 86.754C87.2395 87.2011 89.7001 93.4617 89.7001 93.4617L106.253 102.182Z" fill="#000038"/>
<path d="M68.8968 97.4863C68.8968 97.4863 68.6731 92.3437 70.4627 89.437C70.4627 89.437 71.5811 95.0268 72.4759 96.592C73.3707 98.1571 70.4627 100.617 70.4627 100.617C70.4627 100.617 65.3178 100.393 62.8572 102.405C62.8572 102.629 64.8704 97.9335 68.8968 97.4863Z" fill="#000038"/>
<path d="M191.703 245.057C191.703 244.163 190.137 243.492 189.466 244.61C188.572 245.952 186.782 246.399 186.111 247.964C185.887 248.635 186.558 249.529 187.229 249.529C189.019 249.529 190.361 247.964 191.703 246.623C191.927 246.175 191.927 245.505 191.703 245.057Z" fill="#F4D8D5"/>
<path d="M78.0682 115.15C78.0682 115.15 82.542 124.765 84.7789 126.106C87.0158 127.448 90.3712 130.131 93.9503 130.131C97.5293 129.907 101.556 125.883 101.556 125.883C101.556 125.883 102.003 126.553 103.793 124.541C103.793 124.541 106.477 127.224 108.938 125.659C108.938 125.659 110.503 135.273 109.609 137.286C108.49 139.298 97.753 145.335 92.6081 145.335C87.2395 144.888 82.3183 138.18 80.5288 134.156C78.0682 128.789 77.3971 117.386 77.8445 118.504L78.0682 115.15Z" fill="#000038"/>
<path d="M172.689 251.989L166.202 246.623L173.584 241.704L179.848 239.915L183.874 248.858L172.689 251.989Z" fill="#DBB5BF"/>
<path d="M128.622 228.064H108.49V254.896H128.622V228.064Z" fill="#9D0089"/>
<path d="M116.113 254.493C123.205 237.38 115.074 217.76 97.9534 210.672C80.8324 203.583 61.2041 211.709 54.1122 228.823C47.0203 245.936 55.1505 265.556 72.2714 272.645C89.3924 279.733 109.021 271.607 116.113 254.493Z" fill="#9D0089"/>
<path d="M105.358 260.038C100.437 265.628 93.0554 268.982 85.0025 268.982C69.7915 268.982 57.4885 256.684 57.4885 241.48C57.4885 233.431 61.0676 226.052 66.6599 221.133C62.186 226.052 59.7254 232.313 59.7254 239.468C59.7254 254.672 72.0284 266.969 87.2394 266.969C94.1739 266.969 100.437 264.286 105.358 260.038Z" fill="#000038"/>
<path d="M112.517 241.704C112.517 248.858 109.832 255.119 105.358 260.038C100.437 264.286 94.1739 266.969 87.2395 266.969C72.0285 266.969 59.7255 254.672 59.7255 239.468C59.7255 232.536 62.4098 226.052 66.6599 221.133C71.5811 216.661 77.8444 214.202 85.0026 214.202C100.214 214.202 112.517 226.499 112.517 241.704Z" fill="url(#paint0_linear)"/>
<path d="M81.4235 241.703C81.4235 238.35 78.5155 235.443 75.1601 235.443C71.8048 235.443 68.8968 238.35 68.8968 241.703C68.8968 245.057 71.8048 247.964 75.1601 247.964C78.7392 247.964 81.4235 245.057 81.4235 241.703Z" fill="#E7EDFD"/>
<path d="M128.399 232.76V250.424H150.097L156.36 245.058L163.071 250.424H167.097L174.703 245.058L180.742 250.424H184.098L189.69 245.058L195.059 250.424H198.414L205.125 245.058L210.941 250.424H215.415L229.283 239.244V232.76H128.399Z" fill="url(#paint1_linear)"/>
<path d="M130.636 232.76H128.399V250.424H130.636V232.76Z" fill="#000038"/>
<path opacity="0.3" d="M229.06 235.667H128.399V239.244H229.06V235.667Z" fill="white"/>
<path d="M60.1729 258.249L66.4363 269.429L74.2655 265.851L68.6732 254.448L60.1729 258.249Z" fill="#F4D8D5"/>
<path d="M34.2247 209.954C34.2247 209.954 28.4087 213.531 59.2781 261.603C59.2781 261.603 67.5547 260.038 70.91 256.908C70.91 256.908 57.7123 215.096 52.12 211.295C46.7514 207.27 34.2247 209.954 34.2247 209.954Z" fill="#5E80FA"/>
<path d="M80.7525 282.845C82.3183 284.186 84.1078 283.739 84.3315 282.398C85.8974 282.621 86.5684 281.503 86.5684 280.162C86.5684 280.162 88.8053 279.044 87.6869 277.255C86.7921 275.466 85.2263 274.125 83.6604 273.23C81.1998 271.665 78.9629 270.1 77.1734 267.64C77.6208 264.734 82.0946 269.206 83.2131 268.535C84.7789 267.864 84.1078 266.075 83.2131 264.957C80.5288 261.156 75.1602 259.815 70.6864 260.038C66.2125 260.262 64.423 264.957 64.6467 266.299C63.5282 270.1 69.7916 279.491 75.1602 282.845C78.5155 284.633 80.9761 285.751 80.7525 282.845Z" fill="#F4D8D5"/>
<path d="M188.795 251.989C188.795 251.765 189.019 251.542 188.795 251.318C187.901 248.411 186.782 245.505 185.44 242.598C184.993 241.48 183.427 241.927 182.979 242.821C182.756 243.492 182.532 244.163 182.756 245.057C182.085 243.939 181.413 242.821 180.295 242.151C179.848 241.48 178.282 241.703 178.282 241.703C177.611 241.927 177.163 242.598 177.387 243.269C177.611 243.716 177.611 244.387 177.834 244.834C177.834 244.61 177.611 244.61 177.611 244.387C177.387 243.939 176.492 243.492 175.821 243.939C174.703 244.834 174.479 246.175 174.703 247.741H174.479C173.808 247.517 173.137 247.964 172.913 248.635C172.466 250.647 172.466 253.107 174.255 254.448C175.374 255.343 176.94 255.343 178.282 254.672C178.729 254.895 179.177 255.119 179.848 255.119C180.295 255.119 180.742 255.119 180.966 254.895C181.19 254.672 181.861 254.001 182.085 254.001C182.308 254.225 182.532 254.225 182.756 254.225C183.203 254.448 183.65 254.448 184.098 254.672C184.993 254.672 185.664 254.448 186.111 254.001C186.782 254.225 187.453 254.225 188.124 253.777C189.019 253.107 189.019 252.66 188.795 251.989Z" fill="#F4D8D5"/>
<path d="M386.315 332.482C389.223 335.389 395.71 349.252 388.552 353.053C385.867 354.394 384.301 353.5 382.959 357.077C381.17 361.326 382.512 366.468 382.959 370.717C383.407 374.07 383.63 377.648 381.841 380.555C380.275 383.238 380.722 381.673 378.933 379.213C378.038 378.095 377.143 376.977 376.249 375.636C375.577 374.741 374.459 374.518 373.564 374.965C369.985 377.201 370.433 380.555 371.327 384.356C372.893 390.616 374.235 397.548 376.696 403.585C379.604 411.187 386.538 414.094 394.144 413.646C394.591 414.094 395.262 414.317 395.933 414.093C396.604 413.87 397.052 413.646 397.499 413.423C397.723 413.423 397.723 413.423 397.947 413.423C398.394 413.423 398.841 413.199 399.065 412.752C408.46 408.28 415.842 401.125 420.987 391.734C421.882 389.946 419.868 388.157 418.302 389.275C417.855 389.498 413.829 392.852 413.158 392.405C411.368 391.734 413.381 387.933 413.829 387.039C414.947 384.579 416.066 382.12 416.96 379.437C418.974 373.176 419.645 366.468 419.197 359.984C419.197 358.419 417.408 357.748 416.289 358.419C414.947 359.313 414.052 359.984 413.158 361.102C412.039 358.866 411.144 355.065 410.473 353.724C409.802 352.158 408.907 350.817 408.236 349.252C406.223 345.898 395.486 329.352 387.88 328.905C385.644 328.905 385.196 331.364 386.315 332.482Z" fill="url(#paint2_linear)"/>
<path d="M393.473 361.773C394.368 364.903 396.828 367.363 399.96 368.257C399.96 362.22 399.289 355.959 398.17 349.922C397.947 349.028 399.289 349.028 399.512 349.699C402.197 362.444 401.973 375.636 399.289 388.38C405.552 383.685 408.684 376.306 411.592 369.375C411.815 368.704 413.158 369.151 412.71 369.822C409.802 377.201 406.447 384.803 399.736 389.722C399.512 389.945 399.289 389.945 399.065 389.722C397.947 394.865 396.381 399.784 394.368 404.703C398.841 404.926 403.091 403.808 406.894 401.349C407.565 400.902 408.46 401.796 407.789 402.467C403.763 405.15 398.841 406.491 393.92 406.044C392.802 408.727 391.46 411.41 390.117 414.093C389.67 414.764 388.552 414.317 388.999 413.646C391.46 409.398 393.249 404.926 395.039 400.231C390.117 398.666 385.867 395.759 382.512 391.734C382.065 391.063 382.959 390.393 383.63 390.84C386.762 394.641 390.788 397.548 395.486 398.889C398.618 389.498 400.407 379.66 400.407 369.599C400.184 369.599 400.184 369.599 399.96 369.599C396.381 368.481 393.696 365.798 392.578 362.22C392.131 361.326 393.249 360.878 393.473 361.773Z" fill="#E7EDFD"/>
</g>
<defs>
<linearGradient id="paint0_linear" x1="59.6787" y1="240.56" x2="112.425" y2="240.56" gradientUnits="userSpaceOnUse">
<stop stop-color="#AE2BB6"/>
<stop offset="1" stop-color="#DB006F"/>
</linearGradient>
<linearGradient id="paint1_linear" x1="128.47" y1="241.602" x2="229.243" y2="241.602" gradientUnits="userSpaceOnUse">
<stop stop-color="#AE2BB6"/>
<stop offset="1" stop-color="#DB006F"/>
</linearGradient>
<linearGradient id="paint2_linear" x1="370.653" y1="371.652" x2="421.103" y2="371.652" gradientUnits="userSpaceOnUse">
<stop stop-color="#AE2BB6"/>
<stop offset="1" stop-color="#DB006F"/>
</linearGradient>
<clipPath id="clip0">
<rect width="423" height="417" fill="white"/>
</clipPath>
</defs>
</svg>
